<svg xmlns="http://www.w3.org/2000/svg" width="27.096" height="28.836" viewBox="0 0 27.096 28.836">
  <g id="Group_6" transform="translate(-134.959 -48.621)">
    <path id="Path_25"  d="M204.239,186.743a3.024,3.024,0,0,0,1.447,0,19.41,19.41,0,0,0,6.2-4.778,23.029,23.029,0,0,0,5.665-15.795,2,2,0,0,0-1.293-1.6c-1.8-.856-10.62-4.463-10.709-4.5l-.024-.01a1.6,1.6,0,0,0-1.179-.028l-.081.038c-.1.04-9.844,4.043-10.883,4.476a1.734,1.734,0,0,0-.986,1.655c0,.044,0,.108,0,.19-.083,4.279.907,14.807,11.843,20.348Z" transform="translate(-56.465 -110.346)" fill="#3f3d56"/>
    <path id="Path_26" d="M215.663,170.969s-9.834,4.039-10.888,4.478a2.684,2.684,0,0,0-1.58,2.546c0,1.054-.79,14.8,12.468,21.45a4.091,4.091,0,0,0,2.116,0c.913-.333,12.5-5.952,12.5-21.493a2.93,2.93,0,0,0-1.844-2.458c-1.844-.878-10.759-4.522-10.759-4.522A2.591,2.591,0,0,0,215.663,170.969Z" transform="translate(-68.226 -122.134)" fill="#6c63ff"/>
    <path id="Path_27"  d="M261.781,215.286v21.546a19.181,19.181,0,0,1-9.834-17.332Z" transform="translate(-113.291 -163.29)" opacity="0.1"/>
    <path id="Path_28"  d="M154.4,152.994l-3.161-4.064,1.838-1.43,1.5,1.924,5.056-5.337,1.691,1.6Z" transform="translate(-7.26 -85.502)" fill="#fff"/>
  </g>
</svg>
