<svg xmlns="http://www.w3.org/2000/svg" width="12.853" height="14.281" viewBox="0 0 12.853 14.281">
  <path id="cos_de_gunoi" d="M8,13.425a.714.714,0,0,0,.714-.714V8.426a.714.714,0,1,0-1.428,0v4.284A.714.714,0,0,0,8,13.425Zm7.14-8.569H12.283V4.142A2.142,2.142,0,0,0,10.14,2H8.712A2.142,2.142,0,0,0,6.57,4.142v.714H3.714a.714.714,0,0,0,0,1.428h.714v7.854A2.142,2.142,0,0,0,6.57,16.281h5.712a2.142,2.142,0,0,0,2.142-2.142V6.284h.714a.714.714,0,0,0,0-1.428ZM8,4.142a.714.714,0,0,1,.714-.714H10.14a.714.714,0,0,1,.714.714v.714H8Zm5,10a.714.714,0,0,1-.714.714H6.57a.714.714,0,0,1-.714-.714V6.284H13Zm-2.142-.714a.714.714,0,0,0,.714-.714V8.426a.714.714,0,0,0-1.428,0v4.284A.714.714,0,0,0,10.854,13.425Z" transform="translate(-3 -2)" fill="#fff"/>
</svg>
