<svg xmlns="http://www.w3.org/2000/svg" width="360" height="210" viewBox="0 0 360 210"><g transform="translate(-11 -354)"><g transform="translate(11 355)" fill="none"><path d="M36,0H324a36,36,0,0,1,36,36V173a36,36,0,0,1-36,36H36A36,36,0,0,1,0,173V36A36,36,0,0,1,36,0Z" stroke="none"/><path d="M 36 1 C 31.27459716796875 1 26.6910400390625 1.925277709960938 22.37673950195312 3.750045776367188 C 18.20904541015625 5.5128173828125 14.46591186523438 8.036590576171875 11.25128173828125 11.25126647949219 C 8.036590576171875 14.46591186523438 5.5128173828125 18.20904541015625 3.750030517578125 22.37672424316406 C 1.925262451171875 26.6910400390625 1 31.27459716796875 1 36 L 1 173 C 1 177.7254028320312 1.925262451171875 182.3089599609375 3.750030517578125 186.6232757568359 C 5.5128173828125 190.7909088134766 8.036590576171875 194.5340423583984 11.25128173828125 197.7487335205078 C 14.46591186523438 200.9634094238281 18.20904541015625 203.4871826171875 22.37673950195312 205.2499542236328 C 26.6910400390625 207.0747222900391 31.27459716796875 208 36 208 L 324 208 C 328.7254028320312 208 333.3089599609375 207.0747222900391 337.6232604980469 205.2499542236328 C 341.7909545898438 203.4871826171875 345.5340881347656 200.9634094238281 348.7487182617188 197.7487335205078 C 351.9634094238281 194.5340423583984 354.4871826171875 190.7909088134766 356.2499694824219 186.6232757568359 C 358.0747375488281 182.3089599609375 359 177.7254028320312 359 173 L 359 36 C 359 31.27459716796875 358.0747375488281 26.6910400390625 356.2499694824219 22.37672424316406 C 354.4871826171875 18.20904541015625 351.9634094238281 14.46591186523438 348.7487182617188 11.25126647949219 C 345.5340881347656 8.036590576171875 341.7909545898438 5.5128173828125 337.6232604980469 3.750045776367188 C 333.3089599609375 1.925277709960938 328.7254028320312 1 324 1 L 36 1 M 36 0 L 324 0 C 343.8822631835938 0 360 16.11772155761719 360 36 L 360 173 C 360 192.8822326660156 343.8822631835938 209 324 209 L 36 209 C 16.11773681640625 209 0 192.8822326660156 0 173 L 0 36 C 0 16.11772155761719 16.11773681640625 0 36 0 Z" stroke="none" fill="#fff"/></g><rect width="80" height="3" transform="translate(151 354)" fill="#5b54bc"/></g></svg>