<svg xmlns="http://www.w3.org/2000/svg" width="20" height="25" viewBox="0 0 20 25"><path d="M7.311,16.937a33.66,33.66,0,0,1,5.407,0,22.052,22.052,0,0,1,2.92.367c2.087.423,3.45,1.112,4.034,2.224a3.078,3.078,0,0,1,0,2.769c-.584,1.112-1.892,1.846-4.055,2.224a20.96,20.96,0,0,1-2.92.378A24.892,24.892,0,0,1,9.96,25H8.305A7.886,7.886,0,0,0,7.3,24.933a19.986,19.986,0,0,1-2.92-.367c-2.087-.4-3.45-1.112-4.034-2.224A3.05,3.05,0,0,1,0,20.941a3.016,3.016,0,0,1,.335-1.412C.909,18.416,2.271,17.694,4.38,17.3A21.356,21.356,0,0,1,7.311,16.937ZM10,0a6.659,6.659,0,0,1,6.564,6.75A6.659,6.659,0,0,1,10,13.5,6.659,6.659,0,0,1,3.439,6.75,6.659,6.659,0,0,1,10,0Z" fill="#fff"/></svg>