<svg xmlns="http://www.w3.org/2000/svg" width="28" height="28" viewBox="0 0 28 28"><path d="M0,0H28V28H0Z" fill="none"/><path d="M22.958,15.176A9.309,9.309,0,0,0,23.043,14a9.309,9.309,0,0,0-.084-1.176l2.544-1.98a.6.6,0,0,0,.145-.768L23.235,5.924A.607.607,0,0,0,22.5,5.66l-3,1.2a8.818,8.818,0,0,0-2.037-1.176L17,2.5a.587.587,0,0,0-.591-.5H11.589A.587.587,0,0,0,11,2.5l-.458,3.18A9.273,9.273,0,0,0,8.5,6.86l-3-1.2a.589.589,0,0,0-.735.264L2.354,10.076a.59.59,0,0,0,.145.768l2.544,1.98A9.473,9.473,0,0,0,4.958,14a9.473,9.473,0,0,0,.084,1.176L2.5,17.156a.6.6,0,0,0-.145.768l2.411,4.152a.607.607,0,0,0,.735.264l3-1.2a8.818,8.818,0,0,0,2.037,1.176L11,25.5a.587.587,0,0,0,.591.5h4.822A.587.587,0,0,0,17,25.5l.458-3.18A9.273,9.273,0,0,0,19.5,21.14l3,1.2a.589.589,0,0,0,.735-.264l2.411-4.152a.6.6,0,0,0-.145-.768ZM14,18.2A4.2,4.2,0,1,1,18.22,14,4.214,4.214,0,0,1,14,18.2Z" transform="translate(0)" fill="#fff"/></svg>