<svg xmlns="http://www.w3.org/2000/svg" width="94.751" height="111.899" viewBox="0 0 94.751 111.899"><g transform="translate(0 0)"><path d="M489.2,352.823l-.937,18s39.645-37.733,44.584-48.774-4.358-38.351-4.358-38.351l-20.628,11.331Z" transform="translate(-461.836 -258.919)" fill="#9f616a"/><path d="M815.035,243.4l6.1.581s3.2,6.973-6.682,7.554Z" transform="translate(-726.878 -226.175)" fill="#9f616a"/><path d="M815.035,300.743l6.1.581s3.2,6.973-6.682,7.554Z" transform="translate(-726.878 -272.772)" fill="#9f616a"/><path d="M815.035,362.739l6.1.581s3.2,6.973-6.682,7.554Z" transform="translate(-726.878 -323.146)" fill="#9f616a"/><path d="M805.735,424.735l6.1.581s3.2,6.973-6.682,7.554Z" transform="translate(-719.322 -373.521)" fill="#9f616a"/><path d="M651.29,171.55h-.463V158.868a7.34,7.34,0,0,0-7.34-7.34H616.618a7.34,7.34,0,0,0-7.34,7.34v69.576a7.34,7.34,0,0,0,7.34,7.34h26.869a7.34,7.34,0,0,0,7.34-7.34V180.577h.463Z" transform="translate(-560.163 -151.527)" fill="#3f3d56"/><path d="M658.044,167.2v69.474a5.481,5.481,0,0,1-5.482,5.481h-27a5.481,5.481,0,0,1-5.481-5.481V167.2a5.481,5.481,0,0,1,5.481-5.481h27a5.481,5.481,0,0,1,5.481,5.481Z" transform="translate(-568.943 -159.806)" fill="#f1f1f1"/><rect width="3.83" height="0.187" transform="translate(90.632 19.038) rotate(-20.222)" opacity="0.2"/><rect width="3.83" height="0.187" transform="translate(90.632 29.911) rotate(-20.222)" opacity="0.2"/><rect width="3.83" height="0.187" transform="translate(90.632 41.533) rotate(-20.222)" opacity="0.2"/><rect width="1.941" height="0.187" transform="translate(90.594 52.674) rotate(-25.639)" opacity="0.2"/><path d="M278.993,252.694l-2.184,4.819-3.993,8.812V250.739Z" transform="translate(-221.676 -203.737)" fill="#9f616a"/><path d="M664.322,228.163c0,6.6-6.1,5.6-13.629,5.6s-13.629,1-13.629-5.6,2.981-18.3,13.629-18.3C661.709,209.866,664.322,221.564,664.322,228.163Z" transform="translate(-582.741 -198.93)" fill="#2f2e41"/><path d="M787.653,411.6l.5,3.1v21.4a5.44,5.44,0,0,1-.71,2.7l-4.99-8.748-1.8-18.322-.448-4.576,6.761.142Z" transform="translate(-699.048 -359.237)" fill="#9f616a"/><path d="M658.044,367.668c-.24-.78-.647-2.1-1.113-3.567-.821-2.589-1.826-5.654-2.422-7.114-1.138-2.787-6.936-1.67-6.936-1.67l-19.864-.744-4.071-.54c-1.4-.186-2.613,1.771-3.554,4.109V365.5l4.628.352a16.7,16.7,0,0,0-.635,3.987c-.052,1.846.274,3.91,1.682,5.191,3.035,2.767,4.011,15.221,4.011,15.221l-2.135,8.158h24.929a5.481,5.481,0,0,0,5.481-5.482v-3.021a22.387,22.387,0,0,0-2.864-3.826l-4.459-17.54,6.827-.118.5-.009Z" transform="translate(-568.943 -316.062)" fill="#2f2e41"/><circle cx="9.171" cy="9.171" r="9.171" transform="translate(55.583 24.984) rotate(-45)" fill="#9f616a"/><path d="M653,241.486h3.627l1.6-4.481.32,4.481h1.734l.933-2.614.187,2.614h12.882a9.708,9.708,0,0,0-9.708-9.708h-1.867A9.708,9.708,0,0,0,653,241.486Z" transform="translate(-595.689 -216.734)" fill="#2f2e41"/><path d="M347.267,312.451l32.519-37.1,1.162-23.824,12.2-20.337,3.486-8.716s8.135.872,1.453,17.432l-2.76,8.861h0c2.488,5.359,1.9,11.2,1.9,17.1v20.306c0,4.781-20.91,30.825-23.563,34.8h0Z" transform="translate(-347.267 -209.174)" fill="#9f616a"/><path d="M247.756,87.062,245.33,85.87l.083-.168,2.241,1.1,3.384-8.871.175.067Z" transform="translate(-199.342 -63.323)" opacity="0.2"/><circle cx="5.061" cy="5.061" r="5.061" transform="translate(65.317 68.859)" fill="#6c63ff"/><circle cx="3.413" cy="3.413" r="3.413" transform="translate(55.156 70.695)" fill="#fff"/><path d="M644.275,534.989a3.562,3.562,0,1,1,3.562-3.562A3.562,3.562,0,0,1,644.275,534.989Zm0-6.826a3.265,3.265,0,1,0,3.265,3.265,3.265,3.265,0,0,0-3.265-3.265Z" transform="translate(-585.706 -457.32)" fill="#cbcbcb"/><g transform="translate(55.962 72.513)"><path d="M649.144,541.14H645.8l1.573-2.725a.11.11,0,0,1,.192,0l1.056,1.829.051.087Z" transform="translate(-645.805 -538.358)" fill="#e5e5e5"/><path d="M661.025,544.621h-2.877l.557-.81.04-.058.727-1.055a.147.147,0,0,1,.218-.013l.01.013Z" transform="translate(-655.834 -541.839)" fill="#e5e5e5"/></g><circle cx="3.413" cy="3.413" r="3.413" transform="translate(78.588 70.695)" fill="#fff"/><path d="M769.275,534.989a3.562,3.562,0,1,1,3.562-3.562A3.562,3.562,0,0,1,769.275,534.989Zm0-6.826a3.265,3.265,0,1,0,3.265,3.265,3.265,3.265,0,0,0-3.265-3.265Z" transform="translate(-687.274 -457.32)" fill="#cbcbcb"/><path d="M779.788,541.225l-.111.111v-.8a.162.162,0,0,0-.162-.162h-2.436a.162.162,0,0,0,0,.325h2.273v.641l-.111-.111a.162.162,0,0,0-.277.115v.008a.163.163,0,0,0,.047.115l.388.388a.162.162,0,0,0,.23,0l.388-.388a.163.163,0,0,0,.048-.115v-.008a.162.162,0,0,0-.277-.115Z" transform="translate(-696.378 -467.48)" fill="#e5e5e5"/><path d="M778.7,546.413h-2.273v-.641l.111.111a.162.162,0,0,0,.277-.115v-.008a.163.163,0,0,0-.047-.115l-.388-.388a.162.162,0,0,0-.23,0l-.388.388a.163.163,0,0,0-.048.115v.008a.162.162,0,0,0,.277.115l.111-.111v.8a.162.162,0,0,0,.162.162H778.7a.162.162,0,1,0,0-.325Z" transform="translate(-695.399 -471.412)" fill="#e5e5e5"/><rect width="8.376" height="0.375" transform="translate(53.186 8.542)" fill="#fff"/><rect width="8.376" height="0.375" transform="translate(65.933 8.542)" fill="#fff"/><rect width="8.376" height="0.375" transform="translate(78.68 8.542)" fill="#fff"/><rect width="8.376" height="0.375" transform="translate(53.186 65.903)" fill="#fff"/><rect width="8.376" height="0.375" transform="translate(65.933 65.903)" fill="#fff"/><rect width="8.376" height="0.375" transform="translate(78.68 65.903)" fill="#fff"/></g></svg>