<svg xmlns="http://www.w3.org/2000/svg" width="114.099" height="114.374" viewBox="0 0 114.099 114.374"><g transform="translate(0 0)"><path d="M267.5,178.611,232.62,112.7l.147-.067,80.968-37.049.066.131,31.981,63.415-.136.069Zm-34.463-65.763L267.635,178.2,345.372,139,313.595,75.988Z" transform="translate(-231.683 -75.588)" fill="#f0f0f0"/><path d="M707.566,357.622a3.36,3.36,0,1,1,3.36-3.36h0a3.364,3.364,0,0,1-3.36,3.36Zm0-6.415a3.055,3.055,0,1,0,3.055,3.055A3.055,3.055,0,0,0,707.566,351.208Z" transform="translate(-631.24 -308.851)" fill="#3f3d56"/><path d="M330.566,294.622a3.36,3.36,0,1,1,3.36-3.36h0A3.364,3.364,0,0,1,330.566,294.622Zm0-6.415a3.055,3.055,0,1,0,3.055,3.055A3.055,3.055,0,0,0,330.566,288.207Z" transform="translate(-311.822 -255.474)" fill="#3f3d56"/><path d="M231.567,372.486a.864.864,0,0,1,.019-.178l.143-8.452.21-.019h.009l17.415.7a1.356,1.356,0,0,1,1.295,1.415l-.3,6.77a1.356,1.356,0,0,1-1.415,1.294l-16.541-.666a.867.867,0,0,1-.832-.865Z" transform="translate(-230.791 -319.811)" fill="#6c63ff"/><path d="M226.486,371.719c0-.022,0-.043,0-.065l.3-6.636a1.424,1.424,0,0,1,1.485-1.358l15.9.709a1.357,1.357,0,0,1,1.294,1.415l-.3,6.77a1.357,1.357,0,0,1-1.415,1.294l-15.9-.709a1.423,1.423,0,0,1-1.359-1.42Z" transform="translate(-226.486 -319.659)" fill="#2f2e41"/><circle cx="0.969" cy="0.969" r="0.969" transform="translate(13.854 48.119)" fill="#6c63ff"/><path d="M661.71,561.068l-1.622-22.509.309-7.513-6.324,1.407,2.329,29.495a3.3,3.3,0,1,0,5.308-.879Z" transform="translate(-588.765 -461.481)" fill="#9e616a"/><path d="M265.857,406.984l-6.048-3.931a3.3,3.3,0,1,0-2.7,4.225c.044-.006.086-.017.129-.024l6.483,4.716Z" transform="translate(-249.255 -351.057)" fill="#9e616a"/><path d="M308.939,422.923,294.563,412.3l5.212-4.04,6.331,4.794,23.35-9.472a2.593,2.593,0,0,1,1.974.47,2.553,2.553,0,0,1,1.023,1.716l.011.08-4.28,6.688Z" transform="translate(-284.165 -353.454)" fill="#6c63ff"/><path d="M642.507,434.7l-4.05-28.155.007-.026,4.16-16.352.39-.045a4.541,4.541,0,0,1,4.945,3.6l.308,41.847Z" transform="translate(-575.534 -342.053)" fill="#6c63ff"/><path d="M556.562,250.506H535.509v-9.512a10.526,10.526,0,1,1,21.053,0Z" transform="translate(-488.31 -206.812)" fill="#2f2e41"/><circle cx="8.604" cy="8.604" r="8.604" transform="translate(45.316 35.376) rotate(-45)" fill="#9e616a"/><circle cx="5.727" cy="5.727" r="5.727" transform="translate(55.909 16.621)" fill="#2f2e41"/><path d="M541.544,251.084H519.152v-.127c0-5.8,5.022-10.526,11.2-10.526s11.2,4.722,11.2,10.526Z" transform="translate(-474.451 -215.254)" fill="#2f2e41"/><path d="M475.229,387.6l0-.027a1.87,1.87,0,0,0-2.056-1.72l-22.465,2.3a1.873,1.873,0,0,0-1.585,1.271l-1.654,4.958A14.308,14.308,0,0,0,445,408.737l1.144,6.574-2.089,3.907c-4.289,4.6-6.786,15.359-7.42,31.342a53.686,53.686,0,0,0,15.51,2.273c.043,0,.086,0,.128,0l1.416-10.194,3.052,10a53.325,53.325,0,0,0,14.59-3.331l-3.585-24.766-.718-9.332,8.19-27.578Z" transform="translate(-404.54 -338.459)" fill="#2f2e41"/></g></svg>