<svg xmlns="http://www.w3.org/2000/svg" width="113.684" height="113.725" viewBox="0 0 113.684 113.725"><g transform="translate(0)"><path d="M551.782,157.464l-33.412-32.1s-10.029-17-11.729-27.877-9.349-30.256-9.349-30.256v-10.2s-8.839-3.4-9.519,5.949,1.87,21.418,1.87,21.418,2.55,15.3-3.23,19.208l-21.078,34.506s20.228,18.528,36.036,20.908l19.36,11.135Z" transform="translate(-438.098 -56.43)" fill="#ffb8b8"/><path d="M302.678,260.519H302.1a6.118,6.118,0,0,0-4.706,10.059,6.785,6.785,0,0,0,5.283,2.18Z" transform="translate(-295.922 -227.705)" fill="#ffb8b8"/><path d="M302.678,336.638H302.1a6.118,6.118,0,0,0-4.706,10.059,6.785,6.785,0,0,0,5.283,2.18Z" transform="translate(-295.922 -291.586)" fill="#ffb8b8"/><path d="M302.678,412.758H302.1a6.118,6.118,0,0,0-4.706,10.059,6.785,6.785,0,0,0,5.283,2.18Z" transform="translate(-295.922 -355.467)" fill="#ffb8b8"/><path d="M302.678,488.877H302.1a6.118,6.118,0,0,0-4.706,10.059,6.785,6.785,0,0,0,5.283,2.18Z" transform="translate(-295.922 -419.347)" fill="#ffb8b8"/><path d="M379.011,128.145H378.5V114.287a8.021,8.021,0,0,0-8.021-8.021h-29.36a8.021,8.021,0,0,0-8.021,8.021v76.027a8.021,8.021,0,0,0,8.021,8.021h29.361a8.021,8.021,0,0,0,8.021-8.021v-52.3h.506Z" transform="translate(-327.125 -98.253)" fill="#3f3d56"/><path d="M388.348,125.235V201.15a6.014,6.014,0,0,1-2.2,4.64,5.565,5.565,0,0,1-.474.348,5.963,5.963,0,0,1-3.316,1h-29.5a5.92,5.92,0,0,1-1.419-.17,5.99,5.99,0,0,1-4.571-5.82V125.235a5.991,5.991,0,0,1,5.99-5.99h29.5a5.99,5.99,0,0,1,5.99,5.99Z" transform="translate(-338.675 -109.145)" fill="#6c63ff"/><path d="M437.36,466.655s2.9,8.044.644,12.549,3.539,9.653,3.539,9.653,15.123-7.723,13.193-11.584-5.148-9.01-4.5-12.227Z" transform="translate(-414.619 -399.348)" fill="#ffb8b8"/><circle cx="10.297" cy="10.297" r="10.297" transform="translate(18.075 49.771)" fill="#ffb8b8"/><path d="M436.307,548.214a5.994,5.994,0,0,1-.918.938,5.576,5.576,0,0,1-.474.349,5.848,5.848,0,0,1-3.316.831H405.541l.45-12.507,2.9-6.435a13.439,13.439,0,0,0,2.079,1.341c.173.094.357.187.549.279,2.713,1.311,7.148,2.463,11.446-.746a16.4,16.4,0,0,0,3.962-4.459l8.026,4.55.422,4.929Z" transform="translate(-387.916 -452.016)" fill="#fff"/><path d="M370.813,520.151l-.4,4.21-.212,2.225-.318,3.313-1.358,14.18h-7.743a5.922,5.922,0,0,1-1.419-.17l-3.053-14.117.088-.058Z" transform="translate(-346.598 -445.593)" fill="#2f2e41"/><path d="M519.524,509.034v15.045a6.014,6.014,0,0,1-2.2,4.641,5.559,5.559,0,0,1-.474.348,5.963,5.963,0,0,1-3.316,1h-10.36c.226-4.754.626-9.395,1.093-13.437.2-1.722.413-3.335.631-4.8.7-4.729,1.452-7.94,1.99-8.373l3.563,2.351Z" transform="translate(-469.851 -431.583)" fill="#2f2e41"/><path d="M355.785,590.023l-.371,2.7h-2.558a5.921,5.921,0,0,1-1.419-.17,5.99,5.99,0,0,1-4.571-5.82v-.544l1.2-7.753.41-.058,1.843-.263Z" transform="translate(-338.675 -494.239)" fill="#2f2e41"/><path d="M582.7,550.345v13.083a6.013,6.013,0,0,1-2.2,4.64,5.57,5.57,0,0,1-.474.348l-1.574-6.85,2.031-5.366Z" transform="translate(-533.022 -470.932)" fill="#2f2e41"/><path d="M421.079,342.683a12.029,12.029,0,0,0-6.843-5.231l-2.092,1.674.813-1.952a11.075,11.075,0,0,0-2.068-.12l-1.882,2.42.779-2.337a11.914,11.914,0,0,0-8.219,4.889c-2.4,3.454-2.8,8.258-.444,11.74.647-1.988,1.432-3.853,2.079-5.841a5.884,5.884,0,0,0,1.533.007l.787-1.836.22,1.759c2.439-.213,6.057-.679,8.369-1.107l-.225-1.349,1.345,1.121c.708-.163,1.129-.311,1.094-.424,1.72,2.773,3.424,4.543,5.144,7.316C422.123,349.5,423.276,346.251,421.079,342.683Z" transform="translate(-382.889 -291.929)" fill="#2f2e41"/><ellipse cx="0.697" cy="1.394" rx="0.697" ry="1.394" transform="translate(36.924 58.35)" fill="#ffb8b8"/><ellipse cx="12.834" cy="28.727" rx="12.834" ry="28.727" transform="translate(47.467 38.678)" fill="#ffb8b8"/><path d="M366.145,217.1a3.4,3.4,0,1,1,3.4-3.4,3.4,3.4,0,0,1-3.4,3.4Zm0-6.459a3.06,3.06,0,1,0,3.06,3.06A3.06,3.06,0,0,0,366.145,210.642Z" transform="translate(-352.002 -185.562)" opacity="0.2"/><circle cx="0.51" cy="0.51" r="0.51" transform="translate(12.274 26.78)" opacity="0.2"/><circle cx="0.51" cy="0.51" r="0.51" transform="translate(14.824 26.78)" opacity="0.2"/><path d="M377.095,237.073h-2.55a.17.17,0,0,1,0-.34h2.55a.17.17,0,0,1,0,.34Z" transform="translate(-361.761 -207.743)" opacity="0.2"/><path d="M550.1,217.1a3.4,3.4,0,1,1,3.4-3.4A3.4,3.4,0,0,1,550.1,217.1Zm0-6.459a3.06,3.06,0,1,0,3.06,3.06A3.06,3.06,0,0,0,550.1,210.642Z" transform="translate(-506.38 -185.562)" opacity="0.2"/><circle cx="0.51" cy="0.51" r="0.51" transform="translate(41.851 26.78)" opacity="0.2"/><circle cx="0.51" cy="0.51" r="0.51" transform="translate(44.4 26.78)" opacity="0.2"/><path d="M561.049,237.273a.169.169,0,0,1-.085-.023,2.222,2.222,0,0,0-2.38,0,.17.17,0,1,1-.17-.295,2.569,2.569,0,0,1,2.719,0,.17.17,0,0,1-.085.317Z" transform="translate(-516.139 -207.603)" opacity="0.2"/><path d="M440.9,202.321a6.9,6.9,0,1,1,6.9-6.9A6.9,6.9,0,0,1,440.9,202.321Zm0-13.114a6.212,6.212,0,1,0,6.212,6.212,6.212,6.212,0,0,0-6.212-6.212Z" transform="translate(-411.796 -167.28)" fill="#fff"/><circle cx="1.035" cy="1.035" r="1.035" transform="translate(25.306 25.379)" fill="#fff"/><circle cx="1.035" cy="1.035" r="1.035" transform="translate(30.483 25.379)" fill="#fff"/><path d="M460.717,243.822a5.483,5.483,0,0,1-2.952-1.01.345.345,0,1,1,.375-.579c1.829,1.186,3.388,1.194,4.766.026a.345.345,0,1,1,.446.526A4,4,0,0,1,460.717,243.822Z" transform="translate(-431.611 -212.313)" fill="#fff"/><path d="M228.418,222.432h-4.486v-.69h3.8v-3.8h.69Z" transform="translate(-187.928 -182.904)" fill="#fff"/><path d="M110.86,108.669h-.69v-4.486h4.486v.69h-3.8Z" transform="translate(-92.457 -87.432)" fill="#fff"/></g></svg>