<svg xmlns="http://www.w3.org/2000/svg" width="106.45" height="115.834" viewBox="0 0 106.45 115.834"><g transform="translate(-143.571 -20.55)"><circle cx="49.024" cy="49.024" r="49.024" transform="translate(143.571 36.458)" fill="#3f3d56"/><circle cx="44.965" cy="44.965" r="44.965" transform="translate(147.629 40.517)" fill="#fff"/><circle cx="6.006" cy="6.006" r="6.006" transform="translate(186.426 79.638)" fill="#3f3d56"/><rect width="2.597" height="4.87" transform="translate(191.133 42.789)" fill="#3f3d56"/><rect width="2.597" height="4.87" transform="translate(191.133 123.629)" fill="#3f3d56"/><rect width="2.597" height="4.87" transform="translate(154.447 84.346) rotate(90)" fill="#3f3d56"/><rect width="2.597" height="4.87" transform="translate(235.287 84.346) rotate(90)" fill="#3f3d56"/><path d="M450.924,309.568l2.22-5.075,27.812,15.4Z" transform="translate(-260.223 -221.317)" fill="#3f3d56"/><rect width="12.662" height="14.61" transform="translate(186.264 24.609)" fill="#3f3d56"/><ellipse cx="14.61" cy="4.058" rx="14.61" ry="4.058" transform="translate(177.985 20.55)" fill="#3f3d56"/><path d="M714.67,527.54l-.812,1.136s-3.734,4.383-3.9,2.273,2.76-3.571,2.76-3.571l1.623-.974Z" transform="translate(-494.723 -433.374)" fill="#ffb8b8"/><path d="M825.578,547.11l.68,1.22s2.363,5.25.387,4.494S824.6,548.8,824.6,548.8l-.186-1.884Z" transform="translate(-582.524 -449.109)" fill="#ffb8b8"/><circle cx="4.943" cy="4.943" r="4.943" transform="translate(234.457 66.484)" fill="#2f2e41"/><path d="M811.751,607.147l.649,4.221v1.3h3.734v-1.623s.162-2.922-.487-3.734S811.751,607.147,811.751,607.147Z" transform="translate(-572.812 -495.124)" fill="#ffb8b8"/><path d="M783.173,607.147l.649,4.221v1.3h3.734v-1.623s.162-2.922-.487-3.734S783.173,607.147,783.173,607.147Z" transform="translate(-550.889 -495.124)" fill="#ffb8b8"/><path d="M791.333,462.384a1.661,1.661,0,0,0-.455,2.479c.981,1.722,6.736,19.534,6.736,19.534l3.32-.942-2.928-11.265-1.677-7.08Z" transform="translate(-556.536 -384.263)" fill="#6c63ff"/><circle cx="3.734" cy="3.734" r="3.734" transform="translate(235.125 69.087)" fill="#ffb8b8"/><path d="M805.889,442.063l-.487,7.629-3.409-2.435s1.136-4.545.812-4.87Z" transform="translate(-565.326 -368.675)" fill="#ffb8b8"/><path d="M792.884,462.178l-3.672-2.719s-1.685-.689-2.172.122-2.922,12.824-1.623,15.1c0,0,6.98,1.461,8.441.649l.649-4.221s.812-2.6-.487-4.221Z" transform="translate(-552.321 -381.81)" fill="#6c63ff"/><path d="M741.132,460.625a1.661,1.661,0,0,0-2.435.649c-1.136,1.623-14.772,14.447-14.772,14.447l2.273,2.6,8.928-7.467,5.682-4.545Z" transform="translate(-505.439 -382.692)" fill="#6c63ff"/><path d="M789.945,525.434s-8.035-1.542-8.847-.406l-.162,1.786s-1.786,3.409-.812,8.928a27.179,27.179,0,0,1,.325,8.928,35.9,35.9,0,0,1,7.63,0c3.247.487,3.734,0,3.734,0Z" transform="translate(-548.327 -431.998)" fill="#2f2e41"/><path d="M816.459,628.868l-4.708.162,1.623,12.175s-1.3,5.195.162,5.519a16.469,16.469,0,0,0,3.084.325,4.473,4.473,0,0,0,3.084,1.3,9.089,9.089,0,0,0,3.084-.974,1.009,1.009,0,0,0-.812-1.3c-1.136-.325-4.221-1.3-4.87-4.708Z" transform="translate(-572.812 -511.975)" fill="#2f2e41"/><path d="M787.881,628.868l-4.708.162,1.623,12.175s-1.3,5.195.162,5.519a16.47,16.47,0,0,0,3.084.325,4.473,4.473,0,0,0,3.084,1.3,9.089,9.089,0,0,0,3.084-.974,1.009,1.009,0,0,0-.812-1.3c-1.136-.325-4.221-1.3-4.87-4.708Z" transform="translate(-550.889 -511.975)" fill="#2f2e41"/><circle cx="2.045" cy="2.045" r="2.045" transform="translate(239.083 64.179)" fill="#2f2e41"/><path d="M826.826,399.809a2.046,2.046,0,0,0-1.832-2.034,2.068,2.068,0,0,1,.213-.011,2.045,2.045,0,1,1,0,4.091,2.071,2.071,0,0,1-.213-.011,2.046,2.046,0,0,0,1.832-2.034Z" transform="translate(-582.97 -334.692)" fill="#2f2e41"/><ellipse cx="3.409" cy="2.045" rx="3.409" ry="2.045" transform="translate(235.416 68.334)" fill="#2f2e41"/></g></svg>