<svg xmlns="http://www.w3.org/2000/svg" width="102.693" height="94.621" viewBox="0 0 102.693 94.621"><g transform="translate(-241.773 -271.876)"><g transform="translate(46.429 207.289)"><path d="M482.862,631.588c.008,9.385-18.605,6.5-41.392,6.518s-41.118,2.938-41.126-6.446,18.6-11.442,41.385-11.461S482.854,622.2,482.862,631.588Z" transform="translate(-205 -479.432)" fill="#e6e6e6"/><path d="M489.252,378.288h-2.979L484.855,366.8h4.4Z" transform="translate(-227.359 -238.805)" fill="#a0616a"/><path d="M467.984,416.357h6.076v3.618H464.7v-.331a3.287,3.287,0,0,1,3.287-3.287Z" transform="translate(-211.529 -277.726)" fill="#2f2e41"/><path d="M591.252,457.288h-2.979L586.855,445.8h4.4Z" transform="translate(-307.462 -300.846)" fill="#a0616a"/><path d="M569.984,495.357h6.076v3.618H566.7v-.331a3.287,3.287,0,0,1,3.287-3.287Z" transform="translate(-291.632 -339.766)" fill="#2f2e41"/><path d="M832.576,418.885a2.215,2.215,0,0,0-.622-3.338l-6.919-28.186-4.424,1.9,8.23,27.253a2.227,2.227,0,0,0,3.735,2.368Z" transform="translate(-535.045 -296.58)" fill="#a0616a"/><path d="M798.355,266.1a2.444,2.444,0,0,0-3.739.247l-10.709,1.229,1.629,4.131,9.74-1.823a2.457,2.457,0,0,0,3.079-3.785Z" transform="translate(-506.221 -200.759)" fill="#a0616a"/><path d="M769,508.809l4.673,35.073,5.816-1.2s-.855-25.543,2.053-28.622-3.741-8.474-3.741-8.474Z" transform="translate(-494.514 -389.427)" fill="#2f2e41"/><path d="M704.895,462.56l-2.147,3.22s-16.53-6.87-16.53,4.079-.946,18.378-1.288,18.892,3.958,1.845,6.011,1.5c0,0,2.533-17.651,2.362-18.677,0,0,16.215,7.95,19.295,7.266s3.807-3.107,4.32-4.475-.215-12.237-.215-12.237L706.438,459Z" transform="translate(-428.476 -352.839)" fill="#2f2e41"/><path d="M759.6,294.479l-.612-.734s-6.853-15.42-4.161-19.581,14.441-4.773,14.808-4.528-.877,3.423-.02,4.891c0,0-9.1,1.973-9.713,2.218s4.716,9.29,4.716,9.29L764,291.542Z" transform="translate(-482.889 -204.091)" fill="#736bfa"/><path d="M781.192,347.051s-6.364.734-6.609.734-.367-1.591-.367-1.591l-5.63,7.71s-2.773,22.367-2.039,22,14.277,1.741,14.4.762-.122-5.874.245-6.119,6.364-15.42,6.364-15.42-.612-3.182-2.692-4.283A11.621,11.621,0,0,1,781.192,347.051Z" transform="translate(-492.491 -264.251)" fill="#736bfa"/><path d="M839.173,378.118l1.958,2.08s2.909,23.906,1.318,24.641a13.859,13.859,0,0,1-4.723.644l-3.082-11.333Z" transform="translate(-546.067 -289.321)" fill="#736bfa"/><circle cx="5.633" cy="5.633" r="5.633" transform="translate(276.953 70.02)" fill="#a0616a"/><path d="M777.7,283.014c-.076-1.169-1.551-1.209-2.722-1.22s-2.572.031-3.234-.935a2.183,2.183,0,0,1,.008-2.209,6.275,6.275,0,0,1,1.542-1.717,21.379,21.379,0,0,1,4.884-3.441,7.833,7.833,0,0,1,5.824-.5c2.312.825,5.438,5.072,5.708,7.512a8.85,8.85,0,0,1-2.349,6.751c-1.644,1.823-5.406,1.088-7.774,1.736,1.439-2.037.491-5.739-1.815-6.69Z" transform="translate(-496.434 -206.481)" fill="#2f2e41"/></g><g transform="translate(241.945 275.056)"><g transform="translate(9.055 7.502)"><path d="M56.071,27.514H49.939a17.13,17.13,0,0,0-4.149-7.49l3.267-4.541a1.429,1.429,0,1,0-2.32-1.67l-3.092,4.3a17.032,17.032,0,0,0-8.86-3.395V8.931a1.429,1.429,0,1,0-2.859,0v5.785a17.037,17.037,0,0,0-8.964,3.468l-3.144-4.37a1.429,1.429,0,1,0-2.32,1.67l3.332,4.632a17.131,17.131,0,0,0-4.071,7.4H10.484a1.429,1.429,0,1,0,0,2.859h5.783c-.039.471-.072.944-.072,1.424V46.221a8.566,8.566,0,0,1,1.429-.129H49.073a8.563,8.563,0,0,1,1.43.129V31.8c0-.481-.033-.953-.072-1.424h5.64a1.43,1.43,0,0,0,0-2.859ZM30.5,24.655a4.293,4.293,0,0,0-4.288,4.288,1.429,1.429,0,0,1-2.859,0A7.156,7.156,0,0,1,30.5,21.8a1.429,1.429,0,1,1,0,2.859Z" transform="translate(-9.055 -7.502)" fill="#f93e2b"/></g><g transform="translate(11.907 48.951)"><path d="M48.216,36.5H16.768a5.718,5.718,0,1,0,0,11.436H48.216a5.718,5.718,0,1,0,0-11.436Z" transform="translate(-11.05 -36.498)"/></g></g></g></svg>