<svg xmlns="http://www.w3.org/2000/svg" width="118.931" height="105.165" viewBox="0 0 118.931 105.165"><g transform="translate(0 0)" opacity="0.89"><path d="M733.9,646.822l-.158-.059a9.237,9.237,0,0,1-5.941-11.017l.037-.165.158.059a9.237,9.237,0,0,1,5.941,11.017Zm-5.019-4.548a10.349,10.349,0,0,0,4.8,4.146,8.908,8.908,0,0,0-5.627-10.436A10.364,10.364,0,0,0,728.877,642.274Z" transform="translate(-620.234 -541.797)" fill="#3f3d56"/><path d="M705.254,667.642a10.557,10.557,0,0,1,4.039,5.239,9.09,9.09,0,0,1-10.559-6.353A10.557,10.557,0,0,1,705.254,667.642Z" transform="translate(-595.631 -568.08)" fill="#6c63ff"/><path d="M423.089,334.368a1.847,1.847,0,0,1,2.724-.425,1.752,1.752,0,0,1,.179.17l7.261-1.057.4-5.46a1.584,1.584,0,0,1,3.159.233l0,.029-.708,7.662,0,.017a1.435,1.435,0,0,1-1.386,1.006l-8.541-.147a1.721,1.721,0,0,1-.107.146,1.848,1.848,0,0,1-2.755.113q-.055-.056-.1-.117A1.853,1.853,0,0,1,423.089,334.368Z" transform="translate(-360.408 -278.007)" fill="#ffb7b7"/><path d="M506.349,651.329h-2.071l-.985-7.988h3.057Z" transform="translate(-429.029 -548.412)" fill="#ffb7b7"/><path d="M489.006,695.579h-6.678v-.084a2.6,2.6,0,0,1,2.6-2.6h4.079Z" transform="translate(-411.158 -590.654)" fill="#2f2e41"/><path d="M590.472,641.076l-1.96.668L585,634.5l2.893-.987Z" transform="translate(-498.679 -540.036)" fill="#ffb7b7"/><path d="M592.383,681.8l-6.32,2.156-.027-.08a2.6,2.6,0,0,1,1.621-3.3h0l3.86-1.317Z" transform="translate(-499.443 -579.032)" fill="#2f2e41"/><path d="M500.333,221.417s-2.061-.681-3.387,2.042a52.673,52.673,0,0,1-3.386,5.718l1.178.272s.294-1.906,1.031-2.178l-.294,2.451s8.834,2.859,12.81-.272l-.147-.953a.883.883,0,0,1,.589.953l.442-.408a7.461,7.461,0,0,0-1.767-1.906,4.612,4.612,0,0,1-1.271-2.925,3.409,3.409,0,0,0-.881-1.928A4,4,0,0,0,500.333,221.417Z" transform="translate(-420.732 -188.346)" fill="#2f2e41"/><circle cx="3.765" cy="3.765" r="3.765" transform="translate(76.596 35.055)" fill="#ffb7b7"/><path d="M497.408,308.295l-.685-.228s-1.369.57-1.369,1.6-.228,5.134-.228,5.134l3.08.342Z" transform="translate(-422.067 -262.609)" fill="#cbcbcb"/><path d="M582.274,346.589a1.78,1.78,0,0,1-.041-2.323l-1.922-16.093a1.435,1.435,0,0,1,2.865-.148c0,.005,0,.011,0,.016l1.719,16.111a1.73,1.73,0,0,1,.172.2,1.792,1.792,0,0,1-.4,2.5l-.06.042h0a1.793,1.793,0,0,1-1.515.219,1.772,1.772,0,0,1-.817-.526Z" transform="translate(-494.681 -278.463)" fill="#ffb7b7"/><path d="M581.7,312.821l3.08-.342s-.228-4.107-.228-5.134-1.369-1.6-1.369-1.6l-.685.228Z" transform="translate(-495.862 -260.632)" fill="#cbcbcb"/><path d="M497.205,392.292a24.619,24.619,0,0,0-2.624,10.616c0,5.819-.228,32.515-.228,32.515s3.423,1.6,5.476-.342l1.825-29.549,7.188,28.979s3.423.685,5.02-.456l-3.08-20.194s-1.255-18.939-4.678-20.308S497.205,392.292,497.205,392.292Z" transform="translate(-421.408 -334.405)" fill="#2f2e41"/><path d="M516.254,237.343a10.31,10.31,0,0,0,3.125-3.4s2.446,2.718,3.941,2.854.136-3.261.136-3.261l-2.718-.679-2.582.272-2.038,1.359Z" transform="translate(-439.961 -198.499)" fill="#2f2e41"/><path d="M515.421,301.071s.109-.058-6.389.178l-2.719.749-.361.1s.342,6.845,1.255,8.1.685,1.94.456,2.054-.8-.114-.456.456.8.228.342.57-.685,1.6-.685,1.6l10.04,1.369a30.452,30.452,0,0,1,1.255-6.731,29.406,29.406,0,0,0,1.141-3.194l-.685-4.564Z" transform="translate(-431.295 -256.641)" fill="#cbcbcb"/><path d="M138.085,24.97h-.577V9.154A9.154,9.154,0,0,0,128.353,0H94.845a9.154,9.154,0,0,0-9.154,9.154V95.922a9.154,9.154,0,0,0,9.154,9.154h33.509a9.154,9.154,0,0,0,9.154-9.154h0V36.228h.577Z" transform="translate(-73.046 0)" fill="#3f3d56"/><path d="M150.153,22.979V109.62a6.83,6.83,0,0,1-6.824,6.836H109.647a6.831,6.831,0,0,1-6.836-6.827V22.979a6.831,6.831,0,0,1,6.827-6.836h33.679a6.83,6.83,0,0,1,6.836,6.824Z" transform="translate(-87.641 -13.761)" fill="#fff"/><path d="M150.5,35.8l-.348-2.951h-4.467V16.565a6.815,6.815,0,0,0-2.37-.422h-.581v16.7H127.242v-16.7h-2.951v16.7H111.306v-16.7h-1.659a6.771,6.771,0,0,0-1.293.122V32.846h-5.544V35.8h5.544v6.826l-5.544,3.2v3.409l5.544-3.2v20.31h-5.544v2.951h5.544V98.656h-5.544v2.951h5.544v14.726a6.772,6.772,0,0,0,1.293.122h1.658V101.608h12.985v14.849h2.951V101.608h15.493v14.849h.581a6.815,6.815,0,0,0,2.37-.422V101.608h4.467V98.656h-4.467V85.819h4.427V82.868h-4.427V69.293h4.467V66.342h-4.467v-18h4.467V45.389h-4.467V35.8Zm-30.323,0h0l-8.873,5.123h0V35.8Zm-8.873,8.53h0l12.985-7.5V66.342H111.306Zm0,54.329V69.293h12.985V98.656Zm31.43,0H127.242V85.819h15.493Zm0-15.789H127.242V69.293h15.493Zm0-16.526H127.242v-18h15.493Zm0-20.953H127.242V35.8h15.493Z" transform="translate(-87.641 -13.761)" fill="#e5e5e5"/><path d="M244.319,116.682c0,9.372-16.969,30.249-16.969,30.249s-16.969-20.877-16.969-30.249a16.969,16.969,0,1,1,33.938,0Z" transform="translate(-179.338 -85)" fill="#6c63ff"/><path d="M277.45,151.747a10.034,10.034,0,1,1-10.034-10.034h0a10.029,10.029,0,0,1,10.034,10.025Z" transform="translate(-219.404 -120.802)" fill="#fff"/><circle cx="3.738" cy="3.738" r="3.738" transform="translate(44.239 27.429)" fill="#6c63ff"/><path d="M299.624,245.592a10.044,10.044,0,0,1-10.782,0,5.607,5.607,0,0,1,10.782,0Z" transform="translate(-246.222 -205.887)" fill="#6c63ff"/><circle cx="4.574" cy="4.574" r="4.574" transform="translate(43.438 65.03)" fill="#6c63ff"/><path d="M118.783,711.008H.148a.148.148,0,1,1,0-.3H118.783a.148.148,0,1,1,0,.3Z" transform="translate(0 -605.843)" fill="#cbcbcb"/></g></svg>