<svg xmlns="http://www.w3.org/2000/svg" width="93.347" height="110.331" viewBox="0 0 93.347 110.331"><g transform="translate(-31.258 1.052)"><path d="M481.607,571.116a6.611,6.611,0,1,1-13.209,0c0-.086,0-.172,0-.258a6.61,6.61,0,1,1,13.206.258Z" transform="translate(-421.415 -494.672)" fill="#6c63ff"/><path d="M482.315,591.557l-1.9-2.536.451-.338,1.55,2.066,6.1-4.992.357.436Z" transform="translate(-431.053 -512.051)" fill="#fff"/><g transform="translate(86.132 -1.052)"><path d="M700.653,374.911a2.819,2.819,0,0,1,.393.219l12.493-5.332.446-3.291,4.992-.031-.295,7.548-16.489,4.361a2.972,2.972,0,0,1-.125.336,2.851,2.851,0,1,1-1.415-3.811Z" transform="translate(-696.635 -336.148)" fill="#a0616a"/><path d="M798.318,701.462H794.9l-1.624-13.171h5.04Z" transform="translate(-774.161 -594.302)" fill="#a0616a"/><path d="M772.346,749.937h6.586v4.145H768.2a4.147,4.147,0,0,1,4.147-4.147h0Z" transform="translate(-754.042 -643.753)" fill="#2f2e41"/><path d="M860.318,696.845l-3.4.334-2.908-12.949,5.016-.493Z" transform="translate(-822.88 -590.65)" fill="#a0616a"/><path d="M840.782,745.375l6.553-.646.406,4.126-10.678,1.052a4.146,4.146,0,0,1,3.719-4.532Z" transform="translate(-809.268 -639.577)" fill="#2f2e41"/><circle cx="6.841" cy="6.841" r="6.841" transform="translate(18.267 2.707)" fill="#a0616a"/><path d="M761.47,546.176a1.246,1.246,0,0,1-1.23-1.031c-1.766-9.81-7.545-41.892-7.683-42.781a.4.4,0,0,1,0-.062V499.91a.415.415,0,0,1,.078-.243l.763-1.068a.412.412,0,0,1,.319-.174c4.352-.2,18.6-.8,19.29.058h0c.691.863.446,3.484.39,4l0,.054,6.4,40.944a1.257,1.257,0,0,1-1.035,1.43l-4,.659a1.259,1.259,0,0,1-1.4-.861c-1.237-3.952-5.384-17.246-6.821-22.391a.138.138,0,0,0-.273.04c.072,4.9.245,17.415.306,21.736l.006.465a1.259,1.259,0,0,1-1.14,1.263l-3.856.349A1.161,1.161,0,0,1,761.47,546.176Z" transform="translate(-741.492 -441.679)" fill="#2f2e41"/><path d="M763.186,307.027a5.718,5.718,0,0,0-2.318,3.343,31.666,31.666,0,0,0-1.36,7.565l-.433,7.687L753.711,346c4.649,3.933,7.33,3.039,13.587-.178s6.972,1.073,6.972,1.073l1.251-17.341,1.788-18.949a8.4,8.4,0,0,0-1.354-1.3,13.832,13.832,0,0,0-11.822-2.507Z" transform="translate(-742.421 -287.948)" fill="#6c63ff"/><path d="M776.842,390.628a2.927,2.927,0,0,1,.418.2l12.353-6.184.2-3.35,5.1-.351.273,7.636-16.508,5.46a2.924,2.924,0,1,1-1.836-3.407Z" transform="translate(-757.818 -347.749)" fill="#a0616a"/><path d="M846.061,326.638c3.039,1.073,3.575,12.694,3.575,12.694-3.576-1.966-7.866,1.251-7.866,1.251s-.894-3.039-1.966-6.972a6.833,6.833,0,0,1,1.43-6.436A4.868,4.868,0,0,1,846.061,326.638Z" transform="translate(-811.261 -303.893)" fill="#6c63ff"/><path d="M801.955,224.514c-.852-.682-2.015.557-2.015.557l-.682-6.135a24.363,24.363,0,0,1-6.99-.171c-2.728-.681-3.154,2.473-3.154,2.473a21.889,21.889,0,0,1-.085-3.836c.171-1.534,2.386-3.069,6.307-4.091s5.966,3.41,5.966,3.41C804.032,218.083,802.809,225.2,801.955,224.514Z" transform="translate(-770.715 -213.157)" fill="#2f2e41"/></g><path d="M389.527,258.709a.615.615,0,1,0,0,1.229H434.4a.615.615,0,1,0,0-1.229Z" transform="translate(-357.653 -249.698)" fill="#fff"/><path d="M389.522,277.351a.615.615,0,0,0,0,1.229h28.371a.615.615,0,0,0,0-1.229Z" transform="translate(-357.648 -264.652)" fill="#fff"/><path d="M595.069,223.808a2.587,2.587,0,1,1-5.17,0c0-.034,0-.067,0-.1a2.587,2.587,0,1,1,5.169.1Z" transform="translate(-518.881 -219.496)" fill="#6c63ff"/><path d="M595.346,231.81l-.745-.993.176-.132.607.809,2.388-1.954.14.171Z" transform="translate(-522.653 -226.298)" fill="#fff"/><path d="M389.527,372.709a.615.615,0,1,0,0,1.229H434.4a.615.615,0,1,0,0-1.229Z" transform="translate(-357.653 -341.147)" fill="#fff"/><path d="M389.522,391.351a.615.615,0,0,0,0,1.229h28.371a.615.615,0,0,0,0-1.229Z" transform="translate(-357.648 -356.101)" fill="#fff"/><path d="M594.069,337.808a2.587,2.587,0,1,1-5.17,0c0-.034,0-.067,0-.1a2.587,2.587,0,1,1,5.169.1Z" transform="translate(-518.079 -310.945)" fill="#6c63ff"/><path d="M594.346,345.81l-.745-.993.176-.132.607.809,2.388-1.954.14.171Z" transform="translate(-521.851 -317.747)" fill="#fff"/><path d="M389.527,486.709a.615.615,0,1,0,0,1.229H434.4a.615.615,0,1,0,0-1.229Z" transform="translate(-357.653 -432.596)" fill="#fff"/><path d="M389.522,505.351a.615.615,0,0,0,0,1.229h28.371a.615.615,0,0,0,0-1.229Z" transform="translate(-357.648 -447.55)" fill="#fff"/><path d="M594.069,451.808a2.587,2.587,0,1,1-5.17,0c0-.034,0-.067,0-.1a2.587,2.587,0,1,1,5.169.1Z" transform="translate(-518.079 -402.394)" fill="#6c63ff"/><path d="M594.346,459.81l-.745-.993.176-.132.607.809,2.388-1.954.14.171Z" transform="translate(-521.851 -409.196)" fill="#fff"/></g></svg>