<svg id="Layer_1" data-name="Layer 1" xmlns="http://www.w3.org/2000/svg" viewBox="0 0 489.31 499"><defs><style>.cls-1{fill:none;stroke:#5a56a5;stroke-miterlimit:10;stroke-width:2px;}.cls-2{fill:#5a56a5;}.cls-3{fill:#fff;}</style></defs><path class="cls-1" d="M188.24,1H300.33a9.89,9.89,0,0,1,9.89,9.89V130.54a1.32,1.32,0,0,0,2,1.15L417.35,71.78a9.89,9.89,0,0,1,13.46,3.65L487,172.88a9.89,9.89,0,0,1-3.42,13.38l-88.52,54a9.89,9.89,0,0,0,.21,17l88,50.8a9.89,9.89,0,0,1,3.6,13.53l-57.16,98.31a9.88,9.88,0,0,1-13.75,3.44l-89.34-55.3a9.88,9.88,0,0,0-15.09,8.36l-.54,111.72a9.89,9.89,0,0,1-9.89,9.84H188.29a9.89,9.89,0,0,1-9.89-9.89V382a9.89,9.89,0,0,0-14.84-8.56l-91.48,53a9.89,9.89,0,0,1-13.58-3.73L2.26,322.25A9.89,9.89,0,0,1,6,308.85l89.26-51.46a9.89,9.89,0,0,0,.13-17.06L5.86,186.91a9.9,9.9,0,0,1-3.5-13.44L60.44,72.85A9.88,9.88,0,0,1,74,69.26l88.88,52.18A9.89,9.89,0,0,0,177.78,113l.57-102.14A9.89,9.89,0,0,1,188.24,1Z"/><path class="cls-2" d="M202.45,16.33h84a11.44,11.44,0,0,1,11.45,11.45V135.11A11.45,11.45,0,0,0,315,145.06l92.6-52.77A11.46,11.46,0,0,1,423.1,96.4l42.64,71.94A11.46,11.46,0,0,1,461.86,184L371.62,239a11.45,11.45,0,0,0,.24,19.68l89.66,51.78a11.46,11.46,0,0,1,4.15,15.71L422,400.59a11.45,11.45,0,0,1-15.9,3.94l-89.78-55.59a11.46,11.46,0,0,0-17.48,9.68l-.55,115.07a11.45,11.45,0,0,1-11.45,11.39H202.34a11.44,11.44,0,0,1-11.45-11.44V363a11.45,11.45,0,0,0-17.18-9.91L80.13,407.22a11.44,11.44,0,0,1-15.71-4.29l-42.5-75.45a11.45,11.45,0,0,1,4.26-15.54l92.14-53.13a11.44,11.44,0,0,0,.15-19.74L26,183.84a11.45,11.45,0,0,1-4.09-15.47L64.17,93.78a11.45,11.45,0,0,1,15.64-4.29l93.48,53.41A11.45,11.45,0,0,0,190.42,133L191,27.72A11.45,11.45,0,0,1,202.45,16.33Z"/><g id="layer1"><path id="path16479" class="cls-3" d="M240.87,451.3c-.83-1-1.25-3.87-1.35-9.42l-.15-8-3.45-1.48c-7.66-3.31-10.85-8.39-11-17.59-.09-4.84.25-6.36,2-9.09,2.28-3.51,2.29-3.5-1.78-7.8-5.64-5.95-7.24-20.65-2.79-25.58a6.47,6.47,0,0,0,1.68-2.74c0-.47-1.83-3.1-4-5.85-6.88-8.52-7.74-10.66-8-19.87-.17-7.41,0-8.49,2.19-12.44a44.83,44.83,0,0,1,4.83-7l2.44-2.69L218.3,318a46.8,46.8,0,0,1-5.49-8.36c-2-4.14-2.32-5.8-2.53-14.5-.21-8.52,0-10.41,1.66-14.25A26.56,26.56,0,0,1,216.3,274c2.38-2.36,3.2-4.7,1.65-4.67-.42,0-2.92-2-5.55-4.53-7.32-6.93-11.27-19.08-8.47-26.07l1.25-3.12L202,233.14c-3.16-2.46-4.92-5.12-7.55-11.35l-1.32-3.12-4.3,1.47c-4.13,1.4-4.5,1.39-8.84-.25a25.66,25.66,0,0,0-9.34-1.57,18.75,18.75,0,0,1-9-1.77,25.24,25.24,0,0,0-8-2.07,18.88,18.88,0,0,1-8.64-3c-3.45-2-5.87-2.83-8.46-2.81-4.11,0-10.84-3.09-14.41-6.67l-2.27-2.28,4.73-1.16c5.77-1.4,21-9.4,31.32-16.42,4.17-2.84,12.91-8.82,19.4-13.28,14.5-9.94,15.59-10.53,22.25-12,15.42-3.34,27.76,3.54,30,16.72.86,5.08-.48,9.57-4.14,13.81-1.54,1.8-2.8,3.61-2.79,4s1.26,1.79,2.79,3c2.24,1.82,3.34,2.14,5.74,1.71,4.5-.82,5.18-2,5.12-9.21,0-4.84-.5-7.25-1.9-9.95-3.81-7.37-1.86-15.33,4.63-18.88,8.79-4.81,18.44-.37,19.69,9.06.34,2.63-.09,4.82-1.7,8.51-1.9,4.38-2.11,5.88-1.77,12.43l.39,7.46,4,.18c3.69.17,9.2-1.72,9.17-3.15a13.86,13.86,0,0,0-2.07-3.15c-5-6.39-5.67-16.91-1.39-23.55,5.31-8.23,12.63-11,23.54-9,10,1.88,14.24,4.3,38.79,22.19a246.93,246.93,0,0,0,21.92,13.95c10.68,5.86,11.44,6.14,15.71,5.74s4.48-.27,4.51,1.42c.05,2.51-5.27,8.78-9.25,10.9A17.6,17.6,0,0,1,352,213a25,25,0,0,0-8.17,2.38c-3.92,1.89-5.53,2.22-8.67,1.81-2.74-.35-4.4-.13-5.72.77-2.11,1.44-7.31,2.57-14.18,3.08-14.14,1-18.88,1.53-19.65,2a10.12,10.12,0,0,0-2,3.44c-1.26,3.2-4.67,7.15-8.21,9.53-2.13,1.43-2.31,2-2.22,7,.15,7.63-2.52,13.56-9.51,21.08l-5.57,6,3.6,4.14c5.37,6.17,7.11,10.42,7.27,17.78.25,11.48-2.45,18-10.38,25l-4,3.55,2.68,2.75c6.33,6.52,6.89,7.91,7,17.21.13,10.51-1.2,13.68-8.52,20.3-4.69,4.24-6.29,6.91-4.12,6.87.5,0,1.93,2.17,3.18,4.85,3.94,8.45,2.39,17.34-4.45,25.41a27.33,27.33,0,0,0-3.25,4.32,20.29,20.29,0,0,0,2.21,3.58c1.78,2.51,2.21,4.15,2.3,8.58.18,9.64-5.68,17.47-13.17,17.61l-2.48.05-.4,9.59c-.37,8.8-.94,10.89-3,11C242.31,452.68,241.53,452.07,240.87,451.3Zm2.25-22.19c-.24-12.47-.67-19.17-1.24-19.15s-.7,6.78-.38,19.65c.28,11.16.81,19.44,1.24,19.16S243.32,439.66,243.12,429.11Zm-4-10.06c-.24-7.55-1.4-9.05-3.57-4.64-1.56,3.16-1,8.89,1.36,13.15l1.39,2.55.52-2.15A51.18,51.18,0,0,0,239.12,419.05ZM249,427c1.18-2.29.92-10.61-.36-11.84-1.95-1.88-2.29-1-2.43,6.28-.1,5.29.15,7.27.9,7.25C247.71,428.65,248.56,427.89,249,427Zm6.88-4.18c5.32-9,3.1-15.76-7.89-24.06l-5.19-3.92a34.37,34.37,0,0,1-6-6.07c-2.16-3-2.42-4-2.18-8.43l.26-5-3.59-2.18c-2-1.2-4.22-2.17-5-2.16-3.64.07-5.28,11.11-2.56,17.28,2.6,5.92,10.58,12.58,18.85,15.77,4.33,1.66,9.35,6.89,10.1,10.52a26.81,26.81,0,0,1-.81,11.51c-.52,1.92-.43,2,.82.95A20.54,20.54,0,0,0,255.91,422.79Zm-24.61-.59c-.79-5.72,0-9.48,2.55-12.36s2.14-4.61-1.14-5.37c-1.91-.44-2.69-.08-4.33,2-1.77,2.23-1.94,3.17-1.52,8.2.32,3.89,1.09,6.64,2.42,8.71a14.26,14.26,0,0,0,2.28,3C231.73,426.39,231.62,424.5,231.3,422.2Zm25-27.69a18.71,18.71,0,0,0,6.4-14.44c-.16-8.19-5.34-15.06-16.21-21.49-6.27-3.71-12.34-8.85-14-11.83a13.79,13.79,0,0,1,.61-12.94c2.31-3.56,2.38-3.46-5.44-8.15-5.26-3.16-5.63-3-9.05,3.58-3.29,6.32-3.58,12.81-.93,20.54,1.73,5.07,2.94,6.92,7.41,11.32A44.42,44.42,0,0,0,235.88,369c10.63,5.12,15.85,11.79,12.9,16.49a13.32,13.32,0,0,0-1.24,6.23C247.67,398.72,250.73,399.7,256.27,394.51Zm-12.1-5.33c.05-7.05-.84-10-3-10-1.15,0-.68,11.48.52,12.64C243.54,393.58,244.14,392.93,244.17,389.18Zm-5.61-8c-.37-1.42-.42-1.42-1,0a4.28,4.28,0,0,0,.06,3c.64,1.41.69,1.41,1,0A7.53,7.53,0,0,0,238.56,381.17Zm21.91-20.93c5.93-3.77,9.48-10.6,9.87-19,.25-5.65,0-6.7-2.46-11.53a30.88,30.88,0,0,0-4.74-7,163,163,0,0,0-18.86-12.31c-1.66-.79-5.46-3-8.43-4.88-4.66-3-5.67-4.07-7.21-7.92-2.92-7.33-2.43-12.44,1.61-17.05,2.31-2.64,1.48-4-4.21-6.71l-4.9-2.35-2.94,3.47c-4.55,5.4-6,9.88-5.88,17.8.11,5.88.51,7.63,2.84,12.26,3.16,6.32,9.05,12.21,16.21,16.2,10.83,6.05,19.61,12.09,21.19,14.57a13.23,13.23,0,0,1,1.71,5.84c.07,3.4-2.19,9-4.42,10.89s-1.44,4.12,2.41,6.72C256.66,362.15,257.32,362.24,260.47,360.24ZM245,347.5c0-11.56,0-11.81-2.83-13.2L239.58,333l.17,9c.16,8.12.35,9.12,2.08,10.67,1,.94,2.19,1.41,2.53,1S245,350.55,245,347.5Zm5.39-2.82c.08-4.68-1.66-4.1-1.86.61-.14,3.31,0,4,.81,3.25A7,7,0,0,0,250.39,344.68Zm-13.06-4.89c-1.26-1.21-2.16,2.31-1.32,5.16.66,2.24.69,2.22,1.44-1C238,341.75,237.93,340.36,237.33,339.79Zm26.61-28.11c7-5.37,10.29-12.38,10.22-22,0-3.9-.55-6.55-1.77-8.89-1.67-3.21-9.1-11.42-10.32-11.39a47.22,47.22,0,0,1-6.13-3.24,87.84,87.84,0,0,0-15.74-6.28c-11.51-3.41-19.16-7.43-23-12.08-2.12-2.53-2.74-4.2-3.12-8.28-.49-5.38.15-6.23,2.67-3.56,3.51,3.73,12.07,2.49,15.67-2.28,1.9-2.5,1.69-4.3-.61-5.2A20.65,20.65,0,0,0,212.44,231c-7.11,5.09-9,13.47-4.81,21.29,3.94,7.37,9.44,11.31,28.07,20.11,15.69,7.41,18.51,9.16,21,13,3.4,5.26,1.48,13.56-4.41,19.13-3.28,3.1-3.57,4.44-1.36,6.3,2,1.71,6.42,3.88,7.87,3.9C259.42,314.72,261.74,313.36,263.94,311.68ZM220.32,231.2c-1.08-1,.27-2,2.81-2.1,1.38,0,2.52.33,2.52.8s-.52.87-1.19.88a8,8,0,0,0-2.39.5A1.86,1.86,0,0,1,220.32,231.2ZM246.12,296c.41-11.15.39-11.28-1.63-12.77-2.64-2-5.06-2.7-5.82-1.77-.34.41-.29,5.84.1,12.08.68,11,.77,11.38,2.87,12.47C245.59,308.11,245.69,307.89,246.12,296Zm6.91,4c2.17-3.45,2.27-6.79.29-9.83-1-1.53-2.18-2.55-2.64-2.25-1.09.7-.84,14.11.26,14.09C251.4,302.07,252.34,301.17,253,300.07Zm-16.76-6.69c-.13-6.56-.4-8.11-1.41-8.09-1.46,0-2.55,1.94-3.3,5.79-.37,1.93,0,3.9,1.26,6.6C235.58,303.61,236.44,302.54,236.27,293.38Zm28.79-28.44c8-4.36,14.8-14.44,15.31-22.83.29-4.77.11-5.37-2.47-8.5-4.29-5.19-8.81-7.4-15-7.32-5.67.07-10.14,1.82-10.53,4.11-.14.79.89,2.66,2.29,4.16,2.21,2.39,3.19,2.77,7.63,3s5.37,0,7.69-2a13.3,13.3,0,0,1,3.13-2.28c.72,0-.25,6.87-1.27,9-3,6.16-10.68,12.82-17.68,15.26-4.34,1.5-3.79,3.11,2.08,6.06C261.49,266.26,262.39,266.39,265.06,264.94Zm-2.85-34.61c-2.43-.58-1.76-1.94,1-2s4.18,1.18,2.16,2a4.93,4.93,0,0,1-1.49.45A13.26,13.26,0,0,0,262.21,230.33ZM246.82,257.5c.29-3.13.5-9.08,1-29.3.31-12.23.7-22.7.87-23.26s.29-5.57.27-11.12l0-10.09-5.86-.48a36.6,36.6,0,0,0-6.13-.21c-.14.15-.13,16.45,0,36.23.22,28.21.52,36.1,1.37,36.63a28,28,0,0,0,7.32,2.58A1.1,1.1,0,0,0,246.82,257.5Zm9.47-3.33c3.87-1.86,9.87-7.17,9.84-8.7,0-.52-.6-.94-1.3-.93s-1.2-.41-1.09-.95-1.14-1.32-2.78-1.73a18.46,18.46,0,0,1-6-3.35l-3.07-2.6-.15,5.4c-.09,3,0,5.58.27,5.81s2.18-.21,4.3-1c5.26-1.91,4.91-.59-.55,2.06-4.31,2.1-5.53,3.86-4.47,6.48C251.88,256.24,252,256.23,256.29,254.17Zm-21-1.53c-.63-1.53-11-7.32-13.1-7.28-1.49,0-1.39.32.87,2.59C228.38,253.31,236.89,256.57,235.28,252.64Zm-.58-5.6c.59-2.59.64-10.48.06-10.47a13.79,13.79,0,0,0-3.22,2.12A30,30,0,0,1,226,242l-2.9,1.23,5.11,2.52C234.47,248.9,234.28,248.87,234.7,247ZM286,228.35a59,59,0,0,0,5-6.09c1.35-2.16,1.31-2.26-2.86-6.59a46.81,46.81,0,0,0-4.9-4.67c-.36-.15-2.37,1.29-4.46,3.2-5.66,5.18-9.16,6.67-16.09,6.84a59.1,59.1,0,0,1-8.13-.23c-2-.36-2.13-.13-2.08,2.6.06,3.3-.05,3.27,6.78,1.52,5.4-1.38,12.8.54,17.5,4.54,1.78,1.51,3.78,2.75,4.45,2.76S284,230.49,286,228.35Zm-75.81,1.51a20.78,20.78,0,0,1,5.36-3.19c3.61-1.64,5.37-1.93,9.77-1.6a27.17,27.17,0,0,1,7,1.23c2,1,2.69.37,2.63-2.61l-.05-2.33-7,.15c-5.4.12-8-.24-11-1.57-3.7-1.61-9.47-6.84-11.74-10.64-.91-1.5-1.26-1.31-4.87,2.72-2.14,2.38-3.88,4.83-3.86,5.44,0,2.37,3.68,7.77,7.16,10.64C207.51,231.38,208.72,231.7,210.19,229.86Zm95.1-11.39c2-.83,1.61-1.76-1.68-3.71-1.64-1-4.82-4.4-7.05-7.62-3.62-5.23-4.35-5.85-6.81-5.81-6,.12-6.22,3.74-.59,9.53,4.28,4.4,7.54,6.43,11.92,7.41,1.42.31,2.64.61,2.72.66A5.49,5.49,0,0,0,305.29,218.47Zm-73.37-2c2.31-.51,2.81-2.61,2.66-11.32l-.13-7-5.11.63-5.1.63-3.93-3.78c-4.88-4.7-5.15-7.16-1.17-10.62a14.71,14.71,0,0,0,5.43-12.19c-.07-3.66-.51-4.66-3.35-7.7-4.34-4.63-9.94-6.57-17.94-6.22-5.24.24-7,.78-13.18,4a134.84,134.84,0,0,0-11.86,7l-11.81,8.23c-15.39,10.73-23.38,15.39-38.34,22.38l-3.38,1.57,2.44,1.23c4.48,2.23,11.1,2.22,17,0,10-3.82,36.46-21.2,38.9-25.51,2-3.53,3.1-2.64,3.2,2.56.19,9.95,9.43,18.51,19.79,18.34,1.53,0,2.79.33,2.79.8a.91.91,0,0,1-1,.87c-1.55,0-.18,6.43,2,9.38,2.53,3.41,7.91,6.62,12.39,7.39C225.58,217.66,227,217.57,231.92,216.49Zm93.47-1.29c0-.45-1.09-1.45-2.4-2.21-6.17-3.6-10.46-6.66-13.72-9.81-7.15-6.89-6.85-6.74-9.79-4.92-1.43.88-2.58,2.22-2.57,3,0,2.2,9.95,10.73,15,12.9C316.52,216.15,325.42,216.85,325.39,215.2Zm-135,0a42.77,42.77,0,0,0,7-5.3c6.49-6,6.71-8,1-8.94-3.12-.52-3.38-.36-8.87,5.51a75.49,75.49,0,0,1-8,7.61c-2.69,1.81-2.92,2.8-.8,3.33S186.93,217,190.38,215.15Zm77.31.19a19,19,0,0,0,11.81-10.82c1.12-3.12,1.18-4.1.29-5.13-.6-.7-1-1.28-.78-1.3s3.26-.18,6.86-.35c5.81-.27,6.93-.61,10.19-3.06,5.67-4.27,8.61-11.51,7.1-17.54-.73-2.9,2.13-1,3.48,2.27,1.48,3.64,8.33,9.49,22.52,19.23,11.51,7.91,25.41,11,31.3,7,3.18-2.18,2.89-3.52-1-4.6-8.36-2.34-24.5-11.76-42.33-24.73-23-16.7-30.91-19.76-43.85-16.88-2.73.6-7.88,5.57-9.17,8.83-2.36,6-.62,12.89,4.53,18l3.26,3.23L270,192.32c-3.81,5.83-8.73,7.73-15.27,5.92l-2.37-.66.17,8.62.16,8.61,2.79.75A22.67,22.67,0,0,0,267.69,215.34Zm71.68-2.65c1.44-.58,1.83-2.93.49-2.91-1.65,0-18.88-11.62-25.06-17-6.62-5.71-8.22-6.44-9.06-4.12-1.25,3.46-.32,5.69,4.16,10C320.35,208.74,333.61,215,339.37,212.69Zm-163.61-.19a95.94,95.94,0,0,0,10.35-7.12l6.54-5.07-2.81-2.79c-1.54-1.53-3.11-2.78-3.48-2.77s-2.66,1.88-5.1,4.16c-5.63,5.28-11.86,10-16.43,12.4-4.31,2.28-4.54,3.37-.79,3.77C168.15,215.52,171.47,214.79,175.76,212.5Zm-14.2-4.34c4.55-2.28,23.23-14.63,23.21-15.35,0-1.27-3-8.23-3.54-8.22-.37,0-5.55,3.82-11.52,8.47-9.42,7.35-21.07,14.37-23.92,14.43-2,0-.7,1.73,1.91,2.43C152.64,211.24,156.34,210.77,161.56,208.16Zm89.67-31.71c6-7.43,1.2-17.15-8.31-17-3.69.07-4.62.47-7.09,3s-2.84,3.55-2.78,7c.07,3.65.45,4.39,3.7,7.37,3.44,3.15,3.84,3.29,7.93,2.82C248.23,179.33,249.39,178.75,251.23,176.45Zm-8.14-.6c-.31-.47.24-1.12,1.21-1.45,2.6-.88,4.77-6.1,3.4-8.2-2.19-3.37-.13-4.83,2.65-1.88,2.05,2.19,1.89,6.45-.34,9.05C248,175.77,244,177.2,243.09,175.85Z"/></g></svg>