<svg xmlns="http://www.w3.org/2000/svg" width="243.57" height="226.261" viewBox="0 0 243.57 226.261">
  <g id="Group_2" data-name="Group 2" transform="translate(-89.827 -73)">
    <g id="undraw_my_current_location_re_whmt" transform="translate(89.827 73)">
      <ellipse id="Ellipse_1" data-name="Ellipse 1" cx="15.566" cy="31.762" rx="15.566" ry="31.762" transform="translate(208.23 142.434)" fill="#3f3d56"/>
      <path id="Path_1" data-name="Path 1" d="M834.817,643.471c6.234-37.406.063-74.677,0-75.048l-1.213.205c.063.37,6.2,37.445,0,74.641Z" transform="translate(-612.458 -417.286)" fill="#cacaca"/>
      <rect id="Rectangle_1" data-name="Rectangle 1" width="1.23" height="15.963" transform="translate(209.51 168.452) rotate(-61.858)" fill="#cacaca"/>
      <rect id="Rectangle_2" data-name="Rectangle 2" width="15.964" height="1.23" transform="translate(224.368 178.673) rotate(-28.158)" fill="#cacaca"/>
      <path id="Path_3" data-name="Path 3" d="M390.671,574.765H228.726a2.249,2.249,0,0,1-2.247-2.247V470.189a2.249,2.249,0,0,1,2.247-2.247H390.671a2.249,2.249,0,0,1,2.247,2.247v102.33a2.249,2.249,0,0,1-2.247,2.246Z" transform="translate(-200.183 -349.053)" fill="#e4e4e4"/>
      <path id="Path_4" data-name="Path 4" d="M277.847,506.579a.964.964,0,0,0-.963.963v80.1a.964.964,0,0,0,.963.963H410.005a.964.964,0,0,0,.963-.963v-80.1a.964.964,0,0,0-.963-.963Z" transform="translate(-234.412 -375.29)" fill="#fff"/>
      <path id="Path_5" data-name="Path 5" d="M407.373,526.53v-5.076h-18.69V505.579h-5.076v15.875H350.334V505.579h-5.075v15.875h-51.32V505.579h-5.076v15.875H271.117v5.076h17.746v19.738H271.117v5.076h17.746v21.148H271.117v5.076h45.1v10.676h5.076V577.568h23.968v10.676h5.076V577.568h57.039v-5.076H350.334V551.344h57.039v-5.076h-18.69V526.53Zm-62.114,0v6.2h-51.32v-6.2Zm-51.32,11.279h51.32v8.459h-51.32Zm0,34.683V551.344h22.276v21.148Zm51.32,0H321.291V551.344h23.968Zm38.349-26.224H350.334V526.53h33.273Z" transform="translate(-230.495 -374.611)" fill="#e6e6e6"/>
      <circle id="Ellipse_3" data-name="Ellipse 3" cx="6.485" cy="6.485" r="6.485" transform="translate(110.816 168.352)" fill="#6c63ff"/>
      <path id="Path_6" data-name="Path 6" d="M243.464,703.514H0v-.7H243.57Z" transform="translate(0 -477.254)" fill="#cacaca"/>
      <circle id="Ellipse_4" data-name="Ellipse 4" cx="40.007" cy="40.007" r="40.007" transform="translate(78.072 56.297)" fill="#6c63ff"/>
      <path id="Path_7" data-name="Path 7" d="M315.649,410.7,303.01,389.113l-12.639-21.591,25.018-.151,25.018-.151-12.379,21.741Z" transform="translate(-197.18 -249.365)" fill="#6c63ff"/>
      <circle id="Ellipse_5" data-name="Ellipse 5" cx="14.354" cy="14.354" r="14.354" transform="translate(104.046 81.698)" fill="#fff"/>
      <path id="Path_8" data-name="Path 8" d="M483.089,97.708S474.528,95.3,472,106.992s-.924,10.222-.924,10.222l19.111-2.231S495.929,101.264,483.089,97.708Z" transform="translate(-365.935 -97.502)" fill="#2f2e41"/>
      <path id="Path_9" data-name="Path 9" d="M447.642,258.012s-12.915.6-10.679,5.667q.237.538.442,1.007a90.673,90.673,0,0,0,5.509,10.663l7.938,13.152,2.888-1.6-8.128-21.13,7.306-.6Z" transform="translate(-342.939 -206.498)" fill="#ffb6b6"/>
      <path id="Path_10" data-name="Path 10" d="M557.331,273.48l4.175,9.1s3.131,3.131,6.561,15.656,4.175,12.077,4.175,12.077l-3.39,1.129-13.906-25.284-6.859-8.648,2.088-4.622Z" transform="translate(-418.575 -216.597)" fill="#ffb6b6"/>
      <path id="Path_11" data-name="Path 11" d="M475.976,235.28l6,11.166s13.6,26.727,12.2,26.638c-1.58-.1-6.019,1.742-7.382,3.53-.658.863-10.27-20.219-13.646-24.933l-7.306-5.666s-20.744,3.491-20.77,2.356c-.012-.556,6.868,12.787,5.456,12.2-1.609-.674-5.393,2.6-7.061,1.926-.688-.28-5.552-12.071-7.52-16.9a2.615,2.615,0,0,1,1.21-3.309c1.479-.769,22.036-5.463,22.036-5.463l-.359-1.836L460.32,232Z" transform="translate(-342.289 -188.834)" fill="#2f2e41"/>
      <circle id="Ellipse_6" data-name="Ellipse 6" cx="5.815" cy="5.815" r="5.815" transform="translate(108.974 17.407) rotate(-80.783)" fill="#ffb6b6"/>
      <path id="Path_12" data-name="Path 12" d="M506.384,183.806c.321.963-1.758,1.517-4.657.975-2.508-.468-5.253-1.024-7.418-1.475-2.319-.483-3.975-.844-3.975-.844s-.6,3.728-2.535,3.28c-1.67-.385-6.66-17.816-8.01-22.634a1.676,1.676,0,0,1,.741-1.883l6.854-4.185s4.724-1.622,6.446-1.668,4.7-.494,4.7-.494,3.429.3,4.026,2.833,3.085,17.564,3.131,21.173C505.743,182.843,505.422,180.917,506.384,183.806Z" transform="translate(-372.155 -136.464)" fill="#cacaca"/>
      <path id="Path_13" data-name="Path 13" d="M492.01,113.485s-2.411,6.39-8.32,9.043l-.965-5.667Z" transform="translate(-374.191 -108.355)" fill="#2f2e41"/>
      <ellipse id="Ellipse_7" data-name="Ellipse 7" cx="0.82" cy="1.566" rx="0.82" ry="1.566" transform="translate(120.491 8.797)" fill="#ffb6b6"/>
      <path id="Path_14" data-name="Path 14" d="M471.787,347.856l-11.527,5.3-.067-.146a4.938,4.938,0,0,1,2.424-6.549h0l7.04-3.237Z" transform="translate(-358.582 -264.362)" fill="#2f2e41"/>
      <path id="Path_15" data-name="Path 15" d="M607.433,383.024l7.071-3.17h0a4.938,4.938,0,0,1,6.526,2.486l.066.146-11.577,5.19Z" transform="translate(-458.874 -288.942)" fill="#2f2e41"/>
      <path id="Path_16" data-name="Path 16" d="M400.385,104.51l-1.35,14.847,2.4.113Z" transform="translate(-270.969 -70.969)" opacity="0.2"/>
      <path id="Path_17" data-name="Path 17" d="M493.537,223.59a2.932,2.932,0,0,0-.642-4.45l-5.186-26.2-5.955,2.278,6.97,25.034a2.948,2.948,0,0,0,4.813,3.334Z" transform="translate(-373.531 -162.312)" fill="#ffb6b6"/>
      <path id="Path_18" data-name="Path 18" d="M486.8,183.427l-6.539,1.152a1.315,1.315,0,0,1-1.542-1.259l-.18-6.617a3.651,3.651,0,0,1,7.2-1.246l2.086,6.26a1.315,1.315,0,0,1-1.019,1.71Z" transform="translate(-371.312 -148.381)" fill="#cacaca"/>
      <path id="Path_19" data-name="Path 19" d="M524.751,221.624a2.932,2.932,0,0,0,.819-4.421l3.488-26.477-6.372.248-1.425,25.947a2.948,2.948,0,0,0,3.49,4.7Z" transform="translate(-399.731 -160.807)" fill="#ffb6b6"/>
      <path id="Path_20" data-name="Path 20" d="M530.726,179.452l-6.563-1.006a1.315,1.315,0,0,1-1.057-1.687l1.951-6.326a3.651,3.651,0,0,1,7.215,1.127l-.032,6.6a1.315,1.315,0,0,1-1.514,1.293Z" transform="translate(-401.571 -144.93)" fill="#cacaca"/>
    </g>
    <g id="undraw_security_on_re_e491" transform="translate(59.525 189.509)">
      <path id="Path_25" data-name="Path 25" d="M205.056,188.768a5.7,5.7,0,0,1-1.413-.183l-.091-.025-.084-.042a23.406,23.406,0,0,1-7.649-6,22.729,22.729,0,0,1-3.862-6.858,26.394,26.394,0,0,1-1.493-9.3c0-.066,0-.118,0-.153a3.661,3.661,0,0,1,2.175-3.438c1.011-.421,10.192-4.192,10.855-4.465a3.525,3.525,0,0,1,2.8-.012c.478.2,8.965,3.667,10.8,4.54a3.908,3.908,0,0,1,2.394,3.331,27.122,27.122,0,0,1-1.9,10.231,23.69,23.69,0,0,1-4.257,6.861,20.637,20.637,0,0,1-6.985,5.309,3.8,3.8,0,0,1-1.292.206Zm-.817-2.025a3.024,3.024,0,0,0,1.447,0,19.41,19.41,0,0,0,6.2-4.778,23.029,23.029,0,0,0,5.665-15.795,2,2,0,0,0-1.293-1.6c-1.8-.856-10.62-4.463-10.709-4.5l-.024-.01a1.6,1.6,0,0,0-1.179-.028l-.081.038c-.1.04-9.844,4.043-10.883,4.476a1.734,1.734,0,0,0-.986,1.655c0,.044,0,.108,0,.19-.083,4.279.907,14.807,11.843,20.348Z" transform="translate(-56.465 -110.346)" fill="#3f3d56"/>
      <path id="Path_26" data-name="Path 26" d="M215.663,170.969s-9.834,4.039-10.888,4.478a2.684,2.684,0,0,0-1.58,2.546c0,1.054-.79,14.8,12.468,21.45a4.091,4.091,0,0,0,2.116,0c.913-.333,12.5-5.952,12.5-21.493a2.93,2.93,0,0,0-1.844-2.458c-1.844-.878-10.759-4.522-10.759-4.522A2.591,2.591,0,0,0,215.663,170.969Z" transform="translate(-68.226 -122.134)" fill="#6c63ff"/>
      <path id="Path_27" data-name="Path 27" d="M261.781,215.286v21.546a19.181,19.181,0,0,1-9.834-17.332Z" transform="translate(-113.291 -163.29)" opacity="0.1"/>
      <path id="Path_28" data-name="Path 28" d="M154.4,152.994l-3.161-4.064,1.838-1.43,1.5,1.924,5.056-5.337,1.691,1.6Z" transform="translate(-5.776 -85.512)" fill="#fff"/>
      <path id="Path_29" data-name="Path 29" d="M698.33,740.376h-71.6a.188.188,0,1,1,0-.376h71.6a.188.188,0,1,1,0,.376Z" transform="translate(-544.592 -630.624)" fill="#cacaca"/>
      <path id="Path_30" data-name="Path 30" d="M547.2,519.794h2.906l1.383-11.211H547.2Z" transform="translate(-444.37 -413.004)" fill="#ffb8b8"/>
      <path id="Path_31" data-name="Path 31" d="M733.725,721.187h5.724a3.648,3.648,0,0,1,3.648,3.647v.119h-9.372Z" transform="translate(-631.633 -615.346)" fill="#2f2e41"/>
      <path id="Path_32" data-name="Path 32" d="M599.2,519.794h2.907l1.383-11.211H599.2Z" transform="translate(-486.598 -413.004)" fill="#ffb8b8"/>
      <path id="Path_33" data-name="Path 33" d="M785.725,721.187h5.724a3.648,3.648,0,0,1,3.648,3.647v.119h-9.372Z" transform="translate(-673.861 -615.346)" fill="#2f2e41"/>
      <path id="Path_34" data-name="Path 34" d="M527.909,346.291l.7,35.566-5.64-.35-3.913-22.654-1.236-15.446Z" transform="translate(-420.507 -278.871)" fill="#2f2e41"/>
      <path id="Path_35" data-name="Path 35" d="M728.053,448.485l.791,42.1-6.578-.188-1.421-25.027-2.471-9.062-10.091-4.737,1.648-11.327,14.828-.206Z" transform="translate(-610.972 -387.037)" fill="#2f2e41"/>
      <circle id="Ellipse_8" data-name="Ellipse 8" cx="5.044" cy="5.044" r="5.044" transform="translate(100.697 13.673)" fill="#ffb8b8"/>
      <path id="Path_36" data-name="Path 36" d="M542.89,137.738l.773,1.17,2.06,5.766-1.648,22.448-9.679.206-1.235-25.743,2.588-3.235Z" transform="translate(-432.966 -111.853)" fill="#ccc"/>
      <path id="Path_37" data-name="Path 37" d="M681.445,318.609,679.8,318.4s-.412.206-.618,1.648-2.677,14.21-2.677,14.21l3.3,15.652,3.707-4.943-2.265-8.65,2.265-8.65Z" transform="translate(-585.165 -288.259)" fill="#2f2e41"/>
      <path id="Path_38" data-name="Path 38" d="M613.435,160.4h1.236l3.089,16.681-2.883,12.975-2.883-4.737.824-5.149-.412-4.531-1.442-2.677Z" transform="translate(-496.148 -130.259)" fill="#2f2e41"/>
      <path id="Path_39" data-name="Path 39" d="M730.363,223.817l-.917-.229s-.687-3.9-2.292-3.439-5.732.917-5.732-.917,3.9-3.439,6.19-3.21,5.221.99,5.961,4.356c1.186,5.4-2.448,6.759-2.448,6.759l.06-.2A3.06,3.06,0,0,0,730.363,223.817Z" transform="translate(-621.642 -205.1)" fill="#2f2e41"/>
      <path id="Path_40" data-name="Path 40" d="M695.132,299.27l6.59-2.677,1.545-1.133,4.634,20.491,2.162-21.109,8.547,4.428-2.883,14-.412,5.354,1.236,4.325s4.325,3.089,2.883,6.384-3.089,3.5-3.089,3.5-7-6.59-7.414-8.238-1.03-4.531-1.03-4.531-3.5,13.18-7.62,12.974-4.119-4.531-4.119-4.531l1.03-4.531,1.647-4.737-.824-7.826Z" transform="translate(-600.293 -269.125)" fill="#2f2e41"/>
    </g>
  </g>
</svg>
