<svg xmlns="http://www.w3.org/2000/svg" width="81.073" height="98.852" viewBox="0 0 81.073 98.852">
  <g id="undraw_security_on_re_e491" transform="translate(-81.948 -10.9)">
    <path id="Path_25" data-name="Path 25" d="M205.056,188.768a5.7,5.7,0,0,1-1.413-.183l-.091-.025-.084-.042a23.406,23.406,0,0,1-7.649-6,22.729,22.729,0,0,1-3.862-6.858,26.394,26.394,0,0,1-1.493-9.3c0-.066,0-.118,0-.153a3.661,3.661,0,0,1,2.175-3.438c1.011-.421,10.192-4.192,10.855-4.465a3.525,3.525,0,0,1,2.8-.012c.478.2,8.965,3.667,10.8,4.54a3.908,3.908,0,0,1,2.394,3.331,27.122,27.122,0,0,1-1.9,10.231,23.69,23.69,0,0,1-4.257,6.861,20.637,20.637,0,0,1-6.985,5.309,3.8,3.8,0,0,1-1.292.206Zm-.817-2.025a3.024,3.024,0,0,0,1.447,0,19.41,19.41,0,0,0,6.2-4.778,23.029,23.029,0,0,0,5.665-15.795,2,2,0,0,0-1.293-1.6c-1.8-.856-10.62-4.463-10.709-4.5l-.024-.01a1.6,1.6,0,0,0-1.179-.028l-.081.038c-.1.04-9.844,4.043-10.883,4.476a1.734,1.734,0,0,0-.986,1.655c0,.044,0,.108,0,.19-.083,4.279.907,14.807,11.843,20.348Z" transform="translate(-56.465 -110.346)" fill="#3f3d56"/>
    <path id="Path_26" data-name="Path 26" d="M215.663,170.969s-9.834,4.039-10.888,4.478a2.684,2.684,0,0,0-1.58,2.546c0,1.054-.79,14.8,12.468,21.45a4.091,4.091,0,0,0,2.116,0c.913-.333,12.5-5.952,12.5-21.493a2.93,2.93,0,0,0-1.844-2.458c-1.844-.878-10.759-4.522-10.759-4.522A2.591,2.591,0,0,0,215.663,170.969Z" transform="translate(-68.226 -122.134)" fill="#6c63ff"/>
    <path id="Path_27" data-name="Path 27" d="M261.781,215.286v21.546a19.181,19.181,0,0,1-9.834-17.332Z" transform="translate(-113.291 -163.29)" opacity="0.1"/>
    <path id="Path_28" data-name="Path 28" d="M154.4,152.994l-3.161-4.064,1.838-1.43,1.5,1.924,5.056-5.337,1.691,1.6Z" transform="translate(-5.776 -85.512)" fill="#fff"/>
    <path id="Path_29" data-name="Path 29" d="M698.33,740.376h-71.6a.188.188,0,1,1,0-.376h71.6a.188.188,0,1,1,0,.376Z" transform="translate(-544.592 -630.624)" fill="#cacaca"/>
    <path id="Path_30" data-name="Path 30" d="M547.2,519.794h2.906l1.383-11.211H547.2Z" transform="translate(-444.37 -413.004)" fill="#ffb8b8"/>
    <path id="Path_31" data-name="Path 31" d="M733.725,721.187h5.724a3.648,3.648,0,0,1,3.648,3.647v.119h-9.372Z" transform="translate(-631.633 -615.346)" fill="#2f2e41"/>
    <path id="Path_32" data-name="Path 32" d="M599.2,519.794h2.907l1.383-11.211H599.2Z" transform="translate(-486.598 -413.004)" fill="#ffb8b8"/>
    <path id="Path_33" data-name="Path 33" d="M785.725,721.187h5.724a3.648,3.648,0,0,1,3.648,3.647v.119h-9.372Z" transform="translate(-673.861 -615.346)" fill="#2f2e41"/>
    <path id="Path_34" data-name="Path 34" d="M527.909,346.291l.7,35.566-5.64-.35-3.913-22.654-1.236-15.446Z" transform="translate(-420.507 -278.871)" fill="#2f2e41"/>
    <path id="Path_35" data-name="Path 35" d="M728.053,448.485l.791,42.1-6.578-.188-1.421-25.027-2.471-9.062-10.091-4.737,1.648-11.327,14.828-.206Z" transform="translate(-610.972 -387.037)" fill="#2f2e41"/>
    <circle id="Ellipse_8" data-name="Ellipse 8" cx="5.044" cy="5.044" r="5.044" transform="translate(100.697 13.673)" fill="#ffb8b8"/>
    <path id="Path_36" data-name="Path 36" d="M542.89,137.738l.773,1.17,2.06,5.766-1.648,22.448-9.679.206-1.235-25.743,2.588-3.235Z" transform="translate(-432.966 -111.853)" fill="#ccc"/>
    <path id="Path_37" data-name="Path 37" d="M681.445,318.609,679.8,318.4s-.412.206-.618,1.648-2.677,14.21-2.677,14.21l3.3,15.652,3.707-4.943-2.265-8.65,2.265-8.65Z" transform="translate(-585.165 -288.259)" fill="#2f2e41"/>
    <path id="Path_38" data-name="Path 38" d="M613.435,160.4h1.236l3.089,16.681-2.883,12.975-2.883-4.737.824-5.149-.412-4.531-1.442-2.677Z" transform="translate(-496.148 -130.259)" fill="#2f2e41"/>
    <path id="Path_39" data-name="Path 39" d="M730.363,223.817l-.917-.229s-.687-3.9-2.292-3.439-5.732.917-5.732-.917,3.9-3.439,6.19-3.21,5.221.99,5.961,4.356c1.186,5.4-2.448,6.759-2.448,6.759l.06-.2A3.06,3.06,0,0,0,730.363,223.817Z" transform="translate(-621.642 -205.1)" fill="#2f2e41"/>
    <path id="Path_40" data-name="Path 40" d="M695.132,299.27l6.59-2.677,1.545-1.133,4.634,20.491,2.162-21.109,8.547,4.428-2.883,14-.412,5.354,1.236,4.325s4.325,3.089,2.883,6.384-3.089,3.5-3.089,3.5-7-6.59-7.414-8.238-1.03-4.531-1.03-4.531-3.5,13.18-7.62,12.974-4.119-4.531-4.119-4.531l1.03-4.531,1.647-4.737-.824-7.826Z" transform="translate(-600.293 -269.125)" fill="#2f2e41"/>
  </g>
</svg>
