<svg xmlns="http://www.w3.org/2000/svg" width="243.57" height="226.261" viewBox="0 0 243.57 226.261">
  <g id="undraw_my_current_location_re_whmt" transform="translate(0 0)">
    <ellipse id="Ellipse_1" data-name="Ellipse 1" cx="15.566" cy="31.762" rx="15.566" ry="31.762" transform="translate(208.23 142.434)" fill="#3f3d56"/>
    <path id="Path_1" data-name="Path 1" d="M834.817,643.471c6.234-37.406.063-74.677,0-75.048l-1.213.205c.063.37,6.2,37.445,0,74.641Z" transform="translate(-612.458 -417.286)" fill="#cacaca"/>
    <rect id="Rectangle_1" data-name="Rectangle 1" width="1.23" height="15.963" transform="translate(209.51 168.452) rotate(-61.858)" fill="#cacaca"/>
    <rect id="Rectangle_2" data-name="Rectangle 2" width="15.964" height="1.23" transform="translate(224.368 178.673) rotate(-28.158)" fill="#cacaca"/>
    <path id="Path_3" data-name="Path 3" d="M390.671,574.765H228.726a2.249,2.249,0,0,1-2.247-2.247V470.189a2.249,2.249,0,0,1,2.247-2.247H390.671a2.249,2.249,0,0,1,2.247,2.247v102.33a2.249,2.249,0,0,1-2.247,2.246Z" transform="translate(-200.183 -349.053)" fill="#e4e4e4"/>
    <path id="Path_4" data-name="Path 4" d="M277.847,506.579a.964.964,0,0,0-.963.963v80.1a.964.964,0,0,0,.963.963H410.005a.964.964,0,0,0,.963-.963v-80.1a.964.964,0,0,0-.963-.963Z" transform="translate(-234.412 -375.29)" fill="#fff"/>
    <path id="Path_5" data-name="Path 5" d="M407.373,526.53v-5.076h-18.69V505.579h-5.076v15.875H350.334V505.579h-5.075v15.875h-51.32V505.579h-5.076v15.875H271.117v5.076h17.746v19.738H271.117v5.076h17.746v21.148H271.117v5.076h45.1v10.676h5.076V577.568h23.968v10.676h5.076V577.568h57.039v-5.076H350.334V551.344h57.039v-5.076h-18.69V526.53Zm-62.114,0v6.2h-51.32v-6.2Zm-51.32,11.279h51.32v8.459h-51.32Zm0,34.683V551.344h22.276v21.148Zm51.32,0H321.291V551.344h23.968Zm38.349-26.224H350.334V526.53h33.273Z" transform="translate(-230.495 -374.611)" fill="#e6e6e6"/>
    <circle id="Ellipse_3" data-name="Ellipse 3" cx="6.485" cy="6.485" r="6.485" transform="translate(110.816 168.352)" fill="#6c63ff"/>
    <path id="Path_6" data-name="Path 6" d="M243.464,703.514H0v-.7H243.57Z" transform="translate(0 -477.254)" fill="#cacaca"/>
    <circle id="Ellipse_4" data-name="Ellipse 4" cx="40.007" cy="40.007" r="40.007" transform="translate(78.072 56.297)" fill="#6c63ff"/>
    <path id="Path_7" data-name="Path 7" d="M315.649,410.7,303.01,389.113l-12.639-21.591,25.018-.151,25.018-.151-12.379,21.741Z" transform="translate(-197.18 -249.365)" fill="#6c63ff"/>
    <circle id="Ellipse_5" data-name="Ellipse 5" cx="14.354" cy="14.354" r="14.354" transform="translate(104.046 81.698)" fill="#fff"/>
    <path id="Path_8" data-name="Path 8" d="M483.089,97.708S474.528,95.3,472,106.992s-.924,10.222-.924,10.222l19.111-2.231S495.929,101.264,483.089,97.708Z" transform="translate(-365.935 -97.502)" fill="#2f2e41"/>
    <path id="Path_9" data-name="Path 9" d="M447.642,258.012s-12.915.6-10.679,5.667q.237.538.442,1.007a90.673,90.673,0,0,0,5.509,10.663l7.938,13.152,2.888-1.6-8.128-21.13,7.306-.6Z" transform="translate(-342.939 -206.498)" fill="#ffb6b6"/>
    <path id="Path_10" data-name="Path 10" d="M557.331,273.48l4.175,9.1s3.131,3.131,6.561,15.656,4.175,12.077,4.175,12.077l-3.39,1.129-13.906-25.284-6.859-8.648,2.088-4.622Z" transform="translate(-418.575 -216.597)" fill="#ffb6b6"/>
    <path id="Path_11" data-name="Path 11" d="M475.976,235.28l6,11.166s13.6,26.727,12.2,26.638c-1.58-.1-6.019,1.742-7.382,3.53-.658.863-10.27-20.219-13.646-24.933l-7.306-5.666s-20.744,3.491-20.77,2.356c-.012-.556,6.868,12.787,5.456,12.2-1.609-.674-5.393,2.6-7.061,1.926-.688-.28-5.552-12.071-7.52-16.9a2.615,2.615,0,0,1,1.21-3.309c1.479-.769,22.036-5.463,22.036-5.463l-.359-1.836L460.32,232Z" transform="translate(-342.289 -188.834)" fill="#2f2e41"/>
    <circle id="Ellipse_6" data-name="Ellipse 6" cx="5.815" cy="5.815" r="5.815" transform="translate(108.974 17.407) rotate(-80.783)" fill="#ffb6b6"/>
    <path id="Path_12" data-name="Path 12" d="M506.384,183.806c.321.963-1.758,1.517-4.657.975-2.508-.468-5.253-1.024-7.418-1.475-2.319-.483-3.975-.844-3.975-.844s-.6,3.728-2.535,3.28c-1.67-.385-6.66-17.816-8.01-22.634a1.676,1.676,0,0,1,.741-1.883l6.854-4.185s4.724-1.622,6.446-1.668,4.7-.494,4.7-.494,3.429.3,4.026,2.833,3.085,17.564,3.131,21.173C505.743,182.843,505.422,180.917,506.384,183.806Z" transform="translate(-372.155 -136.464)" fill="#cacaca"/>
    <path id="Path_13" data-name="Path 13" d="M492.01,113.485s-2.411,6.39-8.32,9.043l-.965-5.667Z" transform="translate(-374.191 -108.355)" fill="#2f2e41"/>
    <ellipse id="Ellipse_7" data-name="Ellipse 7" cx="0.82" cy="1.566" rx="0.82" ry="1.566" transform="translate(120.491 8.797)" fill="#ffb6b6"/>
    <path id="Path_14" data-name="Path 14" d="M471.787,347.856l-11.527,5.3-.067-.146a4.938,4.938,0,0,1,2.424-6.549h0l7.04-3.237Z" transform="translate(-358.582 -264.362)" fill="#2f2e41"/>
    <path id="Path_15" data-name="Path 15" d="M607.433,383.024l7.071-3.17h0a4.938,4.938,0,0,1,6.526,2.486l.066.146-11.577,5.19Z" transform="translate(-458.874 -288.942)" fill="#2f2e41"/>
    <path id="Path_16" data-name="Path 16" d="M400.385,104.51l-1.35,14.847,2.4.113Z" transform="translate(-270.969 -70.969)" opacity="0.2"/>
    <path id="Path_17" data-name="Path 17" d="M493.537,223.59a2.932,2.932,0,0,0-.642-4.45l-5.186-26.2-5.955,2.278,6.97,25.034a2.948,2.948,0,0,0,4.813,3.334Z" transform="translate(-373.531 -162.312)" fill="#ffb6b6"/>
    <path id="Path_18" data-name="Path 18" d="M486.8,183.427l-6.539,1.152a1.315,1.315,0,0,1-1.542-1.259l-.18-6.617a3.651,3.651,0,0,1,7.2-1.246l2.086,6.26a1.315,1.315,0,0,1-1.019,1.71Z" transform="translate(-371.312 -148.381)" fill="#cacaca"/>
    <path id="Path_19" data-name="Path 19" d="M524.751,221.624a2.932,2.932,0,0,0,.819-4.421l3.488-26.477-6.372.248-1.425,25.947a2.948,2.948,0,0,0,3.49,4.7Z" transform="translate(-399.731 -160.807)" fill="#ffb6b6"/>
    <path id="Path_20" data-name="Path 20" d="M530.726,179.452l-6.563-1.006a1.315,1.315,0,0,1-1.057-1.687l1.951-6.326a3.651,3.651,0,0,1,7.215,1.127l-.032,6.6a1.315,1.315,0,0,1-1.514,1.293Z" transform="translate(-401.571 -144.93)" fill="#cacaca"/>
  </g>
</svg>
